<?xml version="1.0" encoding="utf-8"?>
<!-- Generator: Adobe Illustrator 24.0.2, SVG Export Plug-In . SVG Version: 6.00 Build 0)  -->
<svg version="1.1" xmlns="http://www.w3.org/2000/svg" xmlns:xlink="http://www.w3.org/1999/xlink" x="0px" y="0px"
	 viewBox="0 0 1309.2 1020.3" style="enable-background:new 0 0 1309.2 1020.3;" xml:space="preserve">
<style type="text/css">
	.st0{fill:#C72838;}
	.st1{fill:none;}
</style>
<g id="Calque_1">
</g>
<g id="Calque_2">
	<path class="st0" d="M347.2,719.2c5.8,12.8,12.3,25.3,19.1,37.6c3.9,7,9,13.4,16.2,17.4c5.3,2.9,9.7,2.4,13.5-2.1
		c2.6-3,4.7-6.6,6.3-10.2c5.2-11.2,6.9-23.2,6.8-35.5c-0.1-13.6-2.2-26.7-7.6-39.3c-5.1-11.7-13.1-20.1-25.3-24.3
		c-13-4.6-26.5-4.5-40-4.5c-2.6,0-3.5,1.7-3.3,4.1C334.8,681.9,339.5,702.3,347.2,719.2z"/>
	<path class="st0" d="M585,506.9c3.7-0.2,7.3,0.3,10.8,1.3c-10.1-6.3-15.5-13-18.3-19.2c-4.1,6-17.3,13.2-17.4,13.3l0,0
		c-1.6,0.9-3.4,1.8-4.6,2.4c-0.1,0-0.1,0.1-0.2,0.1c-0.3,0.2-0.6,0.3-0.9,0.5c-3.3,2-3.2,4.2-3.2,4.2c0.8,9.2,1.6,18.4,2.5,27.6
		c0.9,9.7,1.7,19.3,2.6,29c1.2,12.6,2.5,25.2,3.8,37.8c1.3,12.7,2.7,25.4,4,38.1c2.3,22.3,4.6,44.6,7.1,66.9
		c1.9,17.3,4.1,34.5,5.9,51.8c0.9,8.4,1.9,16.8,4.3,24.9c0.6,2,1.8,4,3.2,5.5c2.9,2.9,6.4,2.2,7.5-1.7c1-3.8,1-7.8,1.5-11.7
		c0.2-1.4,0.7-2.8,1-4c-0.3-2.1-0.9-4.1-0.9-6c0.1-3.8,1.1-7.6,0.7-11.3c-1.1-11.7-2.8-23.4-4-35.1c-1.5-14-2.9-28.1-4-42.2
		c-0.8-10.8-1.2-21.7-1.6-32.6c-1-22.5-1.8-44.9-2.9-67.4c-0.6-12.3-2.6-24.5-4.6-36.7c-1-6-2.1-11.9-3-17.9c-0.8-5.5,0-10.8,4-14.8
		C579.8,507.9,582.7,507,585,506.9z"/>
	<path class="st0" d="M563.3,443.9c2.5,0.6,5,1,7.6,1.1c-3.9-8-13.7-22.4-36.1-29c0.1,0.2,0.2,0.3,0.2,0.5c2.6,5.2,5.6,10,9.1,14.4
		c2.8,3.2,5.9,6,9.3,8.4C556.6,441.3,559.9,442.8,563.3,443.9z"/>
	<path class="st0" d="M668.2,482.6c0,0,0.1-0.1,0.1-0.1c-16-2-48-12.1-51-59.5c-9.8,4.4-16.5,13.2-17.1,25.1
		C598.9,472.9,628.7,491.6,668.2,482.6z"/>
	<path class="st0" d="M921.7,630.2c-1.3-10-6.1-17.5-15.5-21.7c-7.4-3.3-10.1-1.9-11.8,6.1c0,0.2-0.2,0.4-0.3,0.7
		c-0.3,0-0.7-0.1-1-0.1c-0.4,0-0.9,0.1-0.6,0c0.4,1.9,1.1,3.3,1,4.7c-0.5,5.5-1.3,10.9-1.9,16.3c-1.2,12.6-2.3,25.3-3.5,37.9
		c-0.5,5.6-1.3,11.2-1.7,16.8c-0.2,2.5-0.8,6.2,2.2,6.9c2.1,0.5,5.2-1.2,7.2-2.8c7.3-5.8,12.5-13.4,16.6-21.7
		C918.9,659.6,923.7,645.6,921.7,630.2z"/>
	<path class="st0" d="M474.2,222.2c-7-5.1-16.8,9.6-6.9,9.9c9.9,0.3,16.8,22,16.8,22C488.9,251.4,481.3,227.3,474.2,222.2z"/>
	<path class="st0" d="M765.8,210.2c-9.4-4.6-19.2,14.6-7,13c12.2-1.6,23.7,22.4,23.7,22.4C787.9,241.6,775.2,214.9,765.8,210.2z"/>
	<path class="st0" d="M503.5,413.4c-5.6,1.1-9.7,3.4-12.6,6.4c-1.2,1.6-2.2,3.3-3.2,5.1c-0.5,1.2-1,2.4-1.5,3.7
		c-3.6,16,10.5,38.6,28.9,41.5c15.9,2.5,26.6,1.6,33.3,0.2C525.9,460.3,509.5,435.1,503.5,413.4z"/>
	<path class="st0" d="M514.8,395.1c2.1,0.3,4.1-2,4.5-5c0.4-3-1.1-5.6-3.2-5.9c-2.1-0.3-4.1,2-4.5,5
		C511.3,392.2,512.7,394.8,514.8,395.1z"/>
	<path class="st0" d="M753.2,433.1c0.7-0.2,1.9-0.9,1.9-2.2c0-0.6-0.2-0.9-0.6-1c-0.8,0-1.6,0-2.4,0.1c-0.9,0.1-1.9,0.1-3.2,0
		c0,0,0,0,0,0c-1.8,0-3.4-0.1-4.4-0.3c-5.4-1.1-7.1-1.9-6.9-4.7c0.2-2.8-1.8-5.9-4.3-4.1c0,0-9.2,5.3-4.4,11.6
		C733.2,438.1,740.9,436.4,753.2,433.1z"/>
	<path class="st0" d="M267.9,302.3c-0.9-0.4-2-0.5-2.9-0.3c-1.1,0.3-1.8,1.2-0.9,2.6c2.5,3.7,4.9,7.6,7.6,11.2
		c1.6,2.1,3.5,3.9,5.3,5.9c1.8,2.1,3.6,4.4,5.5,6.8C282.8,319.7,278,306.3,267.9,302.3z"/>
	<path class="st0" d="M780.6,477.7c4.4-1.1,8.8-2.4,13.1-4c4.5-1.7,8.9-3.8,13-6.6c1.8-1.4,3.5-3,5.1-4.7c0.7-1,1.4-2,2-3.1
		c0.4-0.9,0.7-1.8,1-2.7c0-0.1,0-0.2,0.1-0.4c0-0.3,0-0.7,0-1c-0.4-22.7-49.2-18.2-74.7-13.2c-15.4,3-19-6-19.5-13.5
		c-3.4,4.9-10.2,16.4-7.5,26.6C716.5,468.2,746.7,480.3,780.6,477.7z"/>
	<path class="st0" d="M631.2,401.4c2.1,0.7,4.3-1.2,5.1-4.1c0.7-2.9-0.3-5.8-2.4-6.5c-2.1-0.7-4.3,1.2-5.1,4.1
		C628.1,397.8,629.1,400.7,631.2,401.4z"/>
	<path class="st0" d="M653.8,439.6c2.8,3.2,5.9,6,9.3,8.4c3.1,2,6.4,3.5,9.9,4.6c2.7,0.7,5.5,1.1,8.3,1.1
		c-0.6-5.3-3.8-15.1-17.6-24.1c-4.7-2.5-9.5-4.5-14.5-6c-1.9-0.5-3.9-1-5.9-1.3c0.4,1,0.9,2,1.3,2.9
		C647.3,430.4,650.3,435.2,653.8,439.6z"/>
	<path class="st0" d="M457.2,514.9c-1.5-1.4-3.3-2.9-5.3-0.9c-2.1,2.1-0.8,4.4,0.7,5.7c5.5,4.8,11.2,9.2,16.9,13.7
		c0.7,0.5,1.8,0.8,2.7,0.8c0.7,0,1.3-0.8,2.2-1.4c-1.3-2-2.1-3.7-3.3-4.9C466.6,523.4,461.9,519.1,457.2,514.9z"/>
	<path class="st0" d="M640.2,547.3c-4.4-3.6-10.3-3.9-13.2,0.6c-1.5,2.3-2.7,5.2-3.2,7.9c-2.8,15.5-5.6,31-8,46.6
		c-1.6,10.4-2.4,20.9-3.7,32.2c1.9-0.4,3-0.4,3.9-0.8c6.2-2.9,12.8-5.2,18.3-9c14.2-9.8,22.7-23,21.4-40.9
		C654.8,569.9,651.8,556.8,640.2,547.3z"/>
	<path class="st0" d="M1223.3,523.7c6.6,2.5,9.8,1.7,10.2-2.5C1229,520,1226.4,520.6,1223.3,523.7z"/>
	<path class="st0" d="M1173,668.6c-1.5-2.3-4.3-3.7-6.6-5.6c-0.2,0.2-0.4,0.5-0.6,0.7c0.5,1,0.9,1.9,1.4,2.9
		c5.5,11,10.4,22.2,13.4,34.2c0.8,3.1,2,6.2,3.3,9.1c1,2.1,1.6,5.6,4.8,4.8c3.1-0.8,3.1-4.2,3-7c0-1.4-0.1-2.9-0.6-4.2
		c-1.4-4.3-2.5-8.8-4.6-12.8C1182.3,683.2,1177.8,675.8,1173,668.6z"/>
	<path class="st0" d="M136.2,500.2c-0.8-1.3-1.3-3-2.4-3.9c-6.2-4.7-12.2-9.7-18.8-13.6c-9-5.4-18.6-9.8-29.4-10.9
		c-3.2-0.3-4.8,1.1-6.5,4.2c18.9,8.4,37.6,16.7,56.3,25C135.7,500.7,135.9,500.4,136.2,500.2z"/>
	<path class="st0" d="M50.2,599.7c5,1,9.6-2.2,11.9-8.5C56.9,592.8,53.1,595.4,50.2,599.7z"/>
	<path class="st0" d="M319.7,573.9c-0.4-4.3-0.3-8.8-1.2-13c-1.1-5.1-2.5-10.3-5-14.8c-1.5-2.7-5-4.5-7.9-6.1
		c-1.1-0.6-3.1,0.3-4.9,0.6c6.3,12,11.9,22.8,17.6,33.7C318.7,574.2,319.2,574.1,319.7,573.9z"/>
	<path class="st0" d="M1165,472.9c0.8-1,1.7-1.9,2.3-3c0.4-0.8,0.4-1.8,0.5-2.2c-0.1-5.4-3-9.6-6.5-9.5c-0.8,0-2.3,1.5-2.1,2
		c0.9,3.5,2,6.9,3.3,10.2C1162.8,471.4,1164.1,472.1,1165,472.9z"/>
	<path class="st0" d="M128,628.2c7.8-2.8,12.6-8.7,18.5-14.1C136.9,613.5,127.2,620.7,128,628.2z"/>
	<path class="st0" d="M961.1,635.7c0.5,3,1.5,5.8,2.3,8.7c0.5,0,0.9,0,1.4,0c0.5-1.2,1.3-2.3,1.3-3.5c0.2-5.2,0.6-10.4,0.2-15.6
		c-0.2-3-1.7-5.9-3.1-8.6c-0.6-1.1-2.5-1.5-3.8-2.2c-0.3,1.3-1.1,2.6-0.9,3.9C959.3,624.2,960.1,630,961.1,635.7z"/>
	<path class="st0" d="M153.8,701.5c3-7,5.9-13.9,6.5-21.4C153,683.9,149.9,695.1,153.8,701.5z"/>
	<path class="st0" d="M814.2,661.1c0.8,0.5,2.1,1,2.8,0.6c2.1-1.1,4-2.6,5.9-3.9l4.3-5.7c1.8-4.4,0.7-8.2-2.3-11.5
		c-2.4-2.7-3.8-2.6-5.1,0.8c-2.2,5.8-4.1,11.7-6,17.6C813.6,659.6,813.8,660.8,814.2,661.1z"/>
	<g>
		<path class="st1" d="M218.9,606c1.7-0.8,3.5-3.7,3.5-5.5c0-1.6-2.2-4-4-4.8c-3.1-1.4-6.6-2.4-10-2.4c-10.2,0.1-20.4,0.2-30.5,1.5
			c-16.8,2.2-33,7.2-48.5,14.1c-1.3,0.6-2.2,1.9-3.7,3.2c-0.3,0.1-1.6,0.1-2.3,0.8c-5.6,5.2-7.9,11.6-6.3,19.2
			c1.6,7.3,6.2,11.7,13.4,13.4c7.6,1.8,15,0.4,21.6-3.3c8.3-4.7,16.2-10.2,23.9-15.8c8.4-6.1,17-11.5,27.1-14.3
			C208.6,610.4,213.9,608.4,218.9,606z"/>
		<path class="st1" d="M989.4,378.9c3.9-5.1,6.6-9.7,8.2-13.8c0.8-2,1.3-3.9,1.6-5.7c0-0.1,0-0.1,0-0.2c0.1-0.4,0.2-1,0.2-1.8
			c0-0.2,0-0.4,0-0.6c0-1.2,0-2.4-0.2-3.5c-0.6-5.4-3.2-12.5-11.5-13.6c-12.5-1.6-19.7,10.2-9.7,17.2c9.8,6.9,10.9-4.2,10.9-4.4
			c0.1,0.3,0.2,0.6,0.3,1c0.1,0.9,0.1,2,0.1,3.4c-0.1,1.4-0.5,3.1-1.3,5c-0.7,1.7-1.6,3.6-2.9,5.7c-1.3,2.1-3,4.5-5.2,7.2
			c-2.2,2.7-4.8,5.6-8.1,8.8c-3.2,3.2-7,6.7-11.5,10.4c-0.4,0.4-0.7,0.8-0.9,1.1c-0.4,1-0.3,2,0.3,3c0.6,1.1,1.6,1.8,3,2.4
			c6.2,2.4,11,4,14.2,4.8c0.4,0.1,0.7,0.2,1.1,0.2l0,0c0,0,5.6,2,8.2-2.9c2.6-4.9-5-7.1-5-7.1l-5.7-2.2l0,0
			C981.5,388.2,986,383.3,989.4,378.9z"/>
		<path class="st1" d="M162.3,664.2c-2.3,0.9-4.6,2.3-6.3,4c-4.9,4.8-9.8,9.7-14.3,14.9c-11.9,14.2-18.7,30.5-19,50
			c0.1,2.1,0.2,5,0.5,7.9c1,9,2.7,17.9,7.9,25.6c2.9,4.4,8.4,7.1,13.3,5.7c8.6-2.5,15.6-7.3,16.9-16.6c1.1-8.3,0.5-16.9,0.5-25.4
			c0-4.6-0.5-9.2-0.6-13.8c-0.1-3.1-0.4-6.3,0.4-9.2c2-7.5,4.7-14.7,7-22.1c1.4-4.5,3.2-9.1,3.7-13.7
			C173,665.7,167.7,662.1,162.3,664.2z"/>
		<path class="st1" d="M77.9,576.8c-0.8-0.1-1.7-0.1-2-0.1c-10.6,0-28.3,8.2-34.1,16.5c-3,4.3-5.3,9.4-6.7,14.4
			c-1.4,5.2,1.8,8.9,7.3,9.3c2.6,0.2,5.4-0.4,7.9-1.3c2.6-0.9,4.9-2.4,7.2-3.9c9.7-6.2,19.2-12.7,25.9-22.4
			C88.2,582.7,86,578,77.9,576.8z"/>
		<path class="st1" d="M947.4,386.1c-1.2-0.1-2.4,0-3.5,0.3c-1.1,0.3-2.1,0.8-2.9,1.4c-0.8,0.6-1.5,1.4-2,2.2
			c-0.5,0.8-0.9,1.7-1.1,2.5c-0.3,1.5,0.1,2.9,1.1,4.3c1,1.3,2.8,2.3,5.6,2.8c2.6,0.5,4.7,0.2,6.2-0.9c1.5-1.1,2.4-2.5,2.7-4.1
			c0.3-1.7,0-3.4-1-5.1C951.4,387.8,949.7,386.7,947.4,386.1z"/>
		<path class="st1" d="M1090.3,501.5c-2.5,3.1-4.6,7.2-2.3,11.3c2.3,4.3,7,3.5,11.9,3.8c2-0.3,4.8-0.8,7.6-1.2
			c17.9-2.8,34.4-9.4,49.5-19.2c9.6-6.2,18.1-13.8,20.5-25.7c2.5-12.4-1.5-22.2-14.5-23.1c-14.9-1.1-28.7,3.2-37.2,16.5
			c-6.2,9.7-13.8,17.6-22.8,24.5C1098.2,492.1,1094.1,496.8,1090.3,501.5z"/>
		<path class="st1" d="M1120.2,567c0.6,2.4,1.6,4.7,2.5,7c1.3,3.6,2.6,7.2,4,10.7c0.2,0.6,1.3,1.3,1.9,1.2c0.5-0.1,1.2-1.1,1.4-1.7
			c0.4-1.6,0.6-3.3,0.8-4.9c0-5.8-2.3-10.8-5.8-15.1c-0.9-1.1-3.3-1.1-5-1.5C1120,564.1,1119.8,565.6,1120.2,567z"/>
		<path class="st1" d="M78.3,510.6c11.7,9.5,25.4,15.4,39.8,19.3c14.5,3.9,29.3,6.9,44,10.2c6.7,1.5,13.6,2.8,20.3,4.1
			c0-0.1,0-0.2,0.1-0.3c1.2-0.1,2.4-0.1,3.6-0.2c7.2-0.9,10.7-6.5,7.8-13.2c-1-2.4-2.5-4.7-4.4-6.5c-2.9-2.7-6.2-5.1-9.6-7.3
			c-10.4-6.6-21.8-11.5-30.8-20.2c-5.3-5.1-10.9-9.8-16.6-14.3c-5.7-4.4-11.4-8.8-17.6-12.5c-4.7-2.9-10.1-4.8-15.1-7.2
			c-11.5-5.5-22.6-4.8-33.4,2c-9.7,6.2-12.1,15.2-6.8,25.4C64.1,498.4,71,504.7,78.3,510.6z"/>
		<path class="st1" d="M965.6,249.9c-1.4-8.4-6.2-14.8-13.9-18.4c-4.7-2.3-8.6-0.7-11,4c-2.3,4.3-2.5,8.9-1.4,13.6
			c1.8,7.6,8.2,13.2,14.7,13.1C959.7,262.1,966.5,255.3,965.6,249.9z"/>
		<path class="st1" d="M1156.3,639.2c-4.9-2.4-10-3.8-15.6-1.7c-4.4,1.7-6.1,4.7-4.1,9c1.5,3.2,4,6,5.7,9.1
			c3.2,5.8,7.3,11.5,8.9,17.7c2.3,8.8,2.5,18.2,3.9,27.2c1.3,8.4,2.8,16.9,4.9,25.1c1.5,5.5,3.4,11.3,6.6,15.9
			c6.6,9.8,16.6,10.3,25,2c7.3-7.2,10.2-16.3,10.4-27.2c-0.8-14.7-5.2-29.1-12.4-42.7C1181.8,659.1,1171.6,646.7,1156.3,639.2z"/>
		<path class="st1" d="M422.4,193.7c-7.6,1.2-17.3,11.6-18,19.2c-0.3,3.2,1,6,4.1,6.7c2.9,0.6,6.3,0.8,9-0.1
			c6.5-2.1,11.3-6.7,14.6-12.6c4.1-7.3,0.5-13.3-8.2-13.3C423.6,193.7,422.9,193.6,422.4,193.7z"/>
		<path class="st1" d="M617.6,145.8c-9.3-1.1-22.5,11.9-23.2,22c-0.3,3.7,1.8,6.7,5.5,7.8c4.1,1.3,8.1,1.3,11.9-1.5
			c6.2-4.4,12.1-9.1,16.1-15.7c3.3-5.5,1.6-10.9-4.9-12C621.1,146.2,619.3,146,617.6,145.8z"/>
		<path class="st1" d="M1237.5,510.8c-3.3-0.6-6.8-0.4-10.1,0.2c-10.3,1.8-19.6,6.2-28.6,11.2c-3,1.7-5.3,4.6-8.2,6.6
			c-2.5,1.7-3.2,3.9-2.4,6.5c0.9,2.7,2.9,4.6,6,4.9c8.9,0.8,17.8,1.7,26.7,2.5c0-0.1,0-0.3,0-0.4c1.8,0,3.6,0.1,5.4,0
			c7.9-0.7,15-3.2,19.4-10.4C1250.7,523.5,1246.5,512.4,1237.5,510.8z"/>
		<path class="st1" d="M921.8,364.5c4.7-1,6.2-6.8,5.1-10.1c-0.9-2.8-7.9-1.6-10-1.1c0,0,0,0,0,0l-2.4-11.7c-0.3-1.3-1-2.1-2.1-2.5
			c-1.1-0.4-2.3-0.5-3.6-0.2c-1.2,0.2-2.2,0.7-3.2,1.5c-0.9,0.8-1.3,1.8-1,3.1l2.4,11.7l-8.4,1.6l-2.4-11.7c-0.3-1.3-1-2.1-2.1-2.5
			c-1.1-0.4-2.3-0.5-3.6-0.2c-1.2,0.2-2.2,0.7-3.2,1.5c-0.9,0.8-1.3,1.8-1,3.1l3.2,15.4c0.1,0.3,0.1,0.5,0.2,0.7
			c0,0,0.9,7.5,7.2,7.7c6.3,0.3,11-2.7,13.3,4.9c1.7,5.5,3.9,14.4,5.1,18.9l0.4,1.9c0.1,0.3,0.2,0.6,0.3,0.9c0,0,0,0,0,0l0,0
			c0.4,0.7,1,1.3,1.8,1.5c1.2,0.4,2.4,0.5,3.6,0.2c1.3-0.2,2.4-0.8,3.2-1.6c0.9-0.8,1.2-1.8,0.9-3.1l-4.9-23.4l0,0l-0.5-2.2l0,0l0,0
			l0-0.2C919.9,367.2,920.1,365,921.8,364.5z"/>
		<path class="st1" d="M714.1,207.4c-9.7,3.1-14.9,10.4-16.5,20.2c-1.2,7.4,2.7,11.8,10.1,11.7c10.4-0.1,20-8.3,21.6-18.5
			C730.5,212.3,722.2,204.8,714.1,207.4z"/>
		<path class="st1" d="M839.9,155.9c-5.7-0.9-11.1,3.4-10.2,8.6c1.4,8.5,6.8,14.3,14,18.5c2.4,1.4,5.2,2.2,6.5,2.8
			c7.8,0,11-3.2,10.3-8.6C859.4,168.5,848.4,157.2,839.9,155.9z"/>
		<path class="st1" d="M991.8,413.3c0.9,0.4,1.9,0.6,3,0.6c1.1,0,2-0.5,2.7-1.4l36.4-43.9c0.4-0.9,0.4-1.9-0.2-3
			c-0.6-1.1-1.6-1.9-2.9-2.5l-10.7-4.9c-0.6-0.3-1.3-0.7-2.4-1.1c-0.1,0-0.2-0.1-0.3-0.1c-0.3-0.1-0.5-0.2-0.8-0.2
			c-5.6-1.6-7,1.5-7,1.5c-4.8,7.3,0.9,9.6,0.9,9.6l7.9,3.8l-29.2,35.4l-0.5,0.7c-0.5,1-0.4,2.1,0.3,3.1
			C989.7,412,990.6,412.8,991.8,413.3z"/>
	</g>
	<g>
		<path class="st1" d="M218.9,606c1.7-0.8,3.5-3.7,3.5-5.5c0-1.6-2.2-4-4-4.8c-3.1-1.4-6.6-2.4-10-2.4c-10.2,0.1-20.4,0.2-30.5,1.5
			c-16.8,2.2-33,7.2-48.5,14.1c-1.3,0.6-2.2,1.9-3.7,3.2c-0.3,0.1-1.6,0.1-2.3,0.8c-5.6,5.2-7.9,11.6-6.3,19.2
			c1.6,7.3,6.2,11.7,13.4,13.4c7.6,1.8,15,0.4,21.6-3.3c8.3-4.7,16.2-10.2,23.9-15.8c8.4-6.1,17-11.5,27.1-14.3
			C208.6,610.4,213.9,608.4,218.9,606z"/>
		<path class="st1" d="M965.6,249.9c-1.4-8.4-6.2-14.8-13.9-18.4c-4.7-2.3-8.6-0.7-11,4c-2.3,4.3-2.5,8.9-1.4,13.6
			c1.8,7.6,8.2,13.2,14.7,13.1C959.7,262.1,966.5,255.3,965.6,249.9z"/>
		<path class="st1" d="M1124.1,669.6c-5.4-15.5-14.3-28.7-27.6-38.5c-15.3-11.3-32.4-16.2-51.4-13.5c-16.9,2.3-31,10.2-42.9,22.1
			c-12,12.1-21.7,25.7-26.9,42.2c-2.2,6.9-5.2,13.4-7.4,20.3c-2.5,8-4.7,16.1-9.1,23.3c-1.9,3.2-4.1,6.2-6.6,8.9
			c-5.6,5.8-12.5,6.8-19.7,3.1c-7.1-3.7-12.7-9.1-16.3-16.3c-1.2-2.4-2-5.2-2.4-7.8c-1.1-7.2,2.5-12.5,7.7-16.8
			c9.2-7.8,18.7-15.4,27.8-23.3c8.2-7.1,14.7-15.7,19-25.7c3-6.8,3.9-14,2.4-21.3c-2.1-10.4-8.3-17.8-16.8-23.7
			c-8.1-5.6-17-9.3-26.4-11.9c-12-3.3-24-6.6-36.6-6.7c-9.8-0.1-16.2,4.3-19.6,13.4c-1.5,4.2-2.7,8.7-3.1,13.2
			c-1.1,14.8-1.6,29.6-2.4,44.4c-0.6,11.6-1,23.3-2.2,34.8c-0.6,6.4-1.5,13.2-4.3,18.7c-5.7,11.1-15.8,17.6-28,20.4
			c-5.8,1.3-12.6-1.4-15-5.8c-5.3-9.6-6-20-5.3-30.7c0.4-6.4,3.5-10.7,9.2-13.4c3.6-1.7,7.1-3.5,10.8-5c7.1-3,13.8-6.6,19-12.6
			c6.6-7.5,9.9-16,6.1-25.8c-3.8-9.9-10.9-15.7-21.7-16.6c-12.3-1-23.1,2.9-33.1,9.7c-7.9,5.4-12.8,12.6-14.2,22.3
			c-0.7,5.1-2.3,10-3.6,15c-1.4,5.4-5.1,7.9-10.6,8.8c-9.7,1.6-19.8-0.8-29.3,2.7c-3.5-2.6-6.7-0.1-9.9,0.7c-5,1.3-7.7,4.9-7.1,9.3
			c0.8,6.3,3.5,9.3,9,9.7c1.3,0.1,2.6,0.1,4,0.2c6,0.1,8.5,2.2,9.2,8.2c0.8,8.1-0.4,15.8-4,23.1c-1.6,3.2-3.5,6.8-7.6,6.9
			c-4.2,0.1-6.1-3.4-7.8-6.6c-5.1-9.3-7.2-19.4-8.5-29.8c-2-16.5-1.9-33-0.8-49.6c1.7-24.6,5-48.9,12.4-72.4
			c2.4-7.5,6-14.8,9.6-21.8c1.1-2.2,4.2-3.5,6.3-5.3c1.5,2.4,4.1,4.7,4.4,7.3c1.6,12.9,2.6,25.9,3.7,38.9c0.8,9.5,1.4,19.1,2.5,28.6
			c0.3,3.1,1.3,6.8,5,7.7c3.7,0.9,5.8-2.3,7.8-4.8c7.4-9.1,8.8-20,8.4-31.2c-0.1-3.7-0.5-7.4-1.1-11.1c-0.6-3.7-1.6-7.2-2.2-10.9
			c-0.5-3.2-2-6.2-3-9.2c-3.1-9.6-7.3-18.8-14-26.5c-5.5-6.4-12.4-10.6-20.9-7.8c-4.9,1.6-9.7,4.8-13.6,8.3
			c-8.7,7.6-14.4,17.6-19.7,27.8c-11,21-17.1,43.6-20.2,67c-2,15.3-2.3,30.6-0.5,45.9c2.2,18.3,8.1,35.6,15,52.5
			c5.4,13.3,15.3,21,30.1,22.1c12,0.9,21.1-3.6,25.9-14.7c3.1-7.1,4.4-14.9,6.7-22.4c2.1-7.2,4.1-14.5,6.7-21.5
			c0.6-1.5,3.6-2.8,5.5-2.8c2.3-0.1,4.7,1.3,4.9,4.2c0.2,2.3,0.5,4.5,0.3,6.8c-0.8,8.9,0.6,17.5,4.3,25.4
			c5.4,11.5,15.8,16.2,28,17.3c12.2,1.1,23.4-3.5,34.8-7.2c2.6-0.9,5.3-1.7,8.4-2.7c-3.8,14.1-13.3,22.2-25.2,27.6
			c-11.9,5.4-24.6,7.6-37.6,8.6c-20.8,1.6-41.5,1.1-61.6-5.1c-25.8-8-45.9-23.3-57.3-48.3c-7.7-16.8-13.4-34.4-15.6-52.8
			c-0.7-6-3.9-12.4-0.9-18.1c2.9-5.5,7.6-10.1,11.5-15.1c0.2-0.3,0.5-0.5,0.7-0.8c2.8-4.7,6.3-9.2,8.2-14.2
			c4.7-12.3,5.8-25,4.2-38.2c-1-7.6-2.2-14.9-5.3-21.8c-0.7-1.5-2.2-2.6-3.1-3.5c-0.6-1.7-0.9-3.5-1.8-4.7c-2.3-3-4.8-6-7.6-8.6
			c-8.4-8-18-13.9-28.4-18.7c40.5,6.3,56.9-23.6,62.4-37.9c6.6,6.5,16.8,13.5,32.2,20.6c52.1,23.9,82.9-13.7,92.6-28.5
			c1.2-1.4,2.4-2.9,3.4-4.6c0,0.3,0,0.7,0.1,1c0,0,0,0,0,0c0.8,18.7,8.6,60,37.4,73c28.8,13,49.7,4,49.7,4l0,0c0,0,0,0,0,0
			c7.2,5.3,15.1,9.1,23.2,10.2c30.3,4.1,48.1-7.4,55.8-19.1c2.1-2.9,3.9-6.3,4.9-9.9c1.6-5.5,2-11.5,1-17.1c-1.1-5.7-3-11-6-15.5
			c-2.8-4.1-6.3-7.7-10.1-10.4c-7.7-5.6-16.4-9.5-24.9-13c-17-6.9-34.6-12.1-50.7-21.4c-1.7-1-3.3-2-5-3c-2.6-1.8-5.1-3.9-7.3-6.3
			c-0.3-0.4-0.6-0.8-0.9-1.3c0.8-0.4,1.6-0.8,2.4-1.1c4.7-1.6,9.5-2.3,14.3-2.6c12.5-0.4,24.9,1.2,36.9,4.5c3.1,0.9,6.2,2,9.3,3.1
			c11.1,5.2,24.7,13.3,26.2,22.5c1.7,10.1,18.1,12.7,27.3,7.2l0,0c0,0,13.1-6.1,13.6-14.3c0.6-8.2-15.1-49.3-97.4-48.9
			c-58.8,0.3-55.5,22.7-45.7,36.9c0.6,1.3,1.4,2.5,2.1,3.5c2.4,3.3,5.2,6.2,8.3,8.6c6.1,4.7,12.8,8.3,19.5,11.6
			c6.5,3.1,13.1,5.7,19.7,8.2c3.3,1.2,6.5,2.4,9.8,3.7c2.8,1.7,5.5,3.6,7.9,5.7c8,7.1,15.5,17.9,4.1,27.8
			c-5.7,4.9-11.5,6.8-17.3,6.3c-16.3-5.8-22.3-19.5-21.7-32.9c0.6-13.4-8.2-15.9-24.8-19.4c-16.6-3.5-13.7,13.5-13.7,13.5l0,0
			c0.2,4.8,1.9,10.8,4.6,17.4c-33.9-12.8-38-55.5-38-55.5l-0.4-1.1c-1.5-11.6-2.1-23.4-2.6-35.1c-0.8-18-1.7-36-3.8-53.8
			c-2.2-18.5-5.5-36.8-9.9-54.6c-4.1-16.7-9.3-33-16-48.3c-3.5-7.9-7.3-15.6-11.6-22.9c-4.3-7.2-9.2-13.9-14.6-20
			c-1.3-1.4-2.5-2.9-3.9-4.2c-0.4-0.4-0.8-0.7-1.2-0.9c-6.5-5.8-25.1-19.6-33.5,5.9c-10.3,31.2,10.8,37.3,46.1,89
			c2.5,3.7,4.8,7.4,7,11.1c-3.6-3-7.9-5.3-12.8-6.4c-1.4-0.3-2.9-0.4-4.3,0c-1.6,0.5-2.5,1.7-0.9,3.2c4.2,4.1,8.4,8.3,12.8,12.2
			c2.6,2.3,5.8,4.1,8.6,6.2c2.2,1.7,4.4,3.5,6.6,5.3c16.9,41.6,13.3,79.2,1.3,75.9c-15-4.1-43.3-19.7-72.2-14.4
			c-0.9,0.2-1.8,0.4-2.6,0.6c-4.3,0.8-8.5,2.1-12.7,3.8c-10.8,4.1-20.9,11.9-28.1,22.7c-0.5,0.8-1.1,1.7-1.6,2.5
			c-0.1-0.1-0.1-0.2-0.2-0.3c-2.2-2.7-4.5-5.2-7.1-7.4c-4.7-3.9-9.9-7.1-15.2-9.7c-4.5-2.3-9.2-4-14-5.4c1.1-5-0.8-10.5-8.8-16
			c-12.6-8.6-19.7-2.1-23.6,6.2c-0.7,0-1.4,0.1-2.1,0.2c-3.1,0.3-6.2,1.4-9.2,2.7c-2.5,1.1-4.9,2.5-7.3,4.1
			c-2.7,1.9-5.4,3.9-7.9,6.1c-3.9,3.4-7.6,7.4-10.6,12c-0.7-1-1.4-2-2.2-3c-2.2-2.7-4.5-5.2-7.1-7.4c-4.7-3.9-9.9-7.1-15.2-9.7
			c-5.8-2.9-12-5-18.2-6.5c-0.6-0.1-1.2-0.3-1.8-0.4c0-6.7-3.7-16.2-25.3-14.9c-6.2,0.4-10.2,3.9-12.2,9.5c-0.1,0-0.1,0-0.2,0.1
			c-2.5,1.1-4.9,2.5-7.3,4.1c-0.9,0.7-1.9,1.3-2.8,2c11.3-52.8,10.8-90.5,7.9-113.9c-0.3-3.8-0.8-7.3-1.5-10.3
			c-0.1-0.5-0.2-1.1-0.4-1.6c-2.2-11.7-4.6-17.4-4.6-17.4l0,0c-8.6-27.1-21.2-41.3-33.2-33.7c-14.6,9.2-9.8,30.4-9.8,30.4
			c33.5,54.2-5.6,187.3-5.6,187.3c-0.2,0.7-0.4,1.3-0.7,2c-0.3,1-0.7,1.9-1.1,2.8c-2.5-2.3-2.7,5.5-2.7,5.9c0,0.1-0.1,0.1-0.1,0.2
			c-0.8,1.4-6.5,10.5-18.1,13.3c-8.1,2-14.7-1.8-18.4-4.7c-9.5-8.3-15.8-19.7-19.6-33c-4.8-16.8-5.6-34.6-6.2-52.4
			c-0.2-7.7-0.7-15.5-1.6-23.1c-0.7-5.9-2.5-11.7-5.6-16.4c-3.3-5-7.6-5.3-11.9-0.9c-2.7,2.7-4.2,6.1-4.7,10.1
			c-1.3,9.8-2.4,19.5-3.9,29.2c-1.7,11.2-4.3,22.1-8.8,32.3c-3.8,8.5-8.2,16.5-15,22c-7.5,6.1-16.1,5.9-23-0.5
			c-7.2-6.8-11.4-16.1-12.3-26.9c-1.2-14.9-1.3-29.9-2-44.9c-0.6-12-1.5-24-5.9-34.8c-3-7.5-7.4-13.5-14.1-16.7
			c-5.7-2.7-11.5-4.5-17.9-3.1c-3.7,0.8-6.4,3.6-7.1,7.3c-0.9,5,0,9.5,2.7,13.2c1.2,1.6,2.5,3.1,4,4.3c5.6,4.5,8.4,11,9.4,18.8
			c1.5,11.2,1.9,22.6,1.2,34c-0.3,5.4-0.4,10.8-0.5,16.2c-0.3,11.9-0.4,23.8,1.8,35.3c2.8,14.6,9.2,25.9,21,31.5
			c10.2,4.9,20.9,4.7,31.8,1.5c9.5-2.7,17.4-9,25.1-16c4.9-4.4,9.5-9.3,12.8-15.7c0.2,0.1,0.4,0.2,0.4,0.4c0.1,0.5,0.2,1,0.2,1.4
			c1.7,12.3,4.7,24.1,10,34.7c3.1,6.2,7,11.5,11.7,15.8c7.7,7.1,16.4,10.9,25.8,11.9c0,0,0.1,0,0.1,0c0,0,33.2,8.2,60.7-25.4
			c2.6,13.5,11.6,37.3,42.3,47.7c0.8,0.3,1.7,0.5,2.5,0.8c0,0,0,0,0.1,0c2.6,0.8,3.3,2.9,3.4,3.3c1.5,8.8,2.9,17.6,4.2,26.4
			c1.8,12.1,3.1,24.2,4.3,36.4c1.6,16.7,2.8,33.5,4.1,50.2c0.5,6,0.8,12.1,1,18.1c0.3,13.3,0.5,26.6,0.4,39.9
			c-0.1,11.5-0.6,23-1,34.5c-0.2,4.9-0.2,9.8-1.5,14.5c-0.9,3.2-1.6,6.5-3,9.6c-2,4.5-4.5,4.7-7.7,0.9c-5.5-6.4-8.2-14.2-9.7-22.3
			c-2.2-11.9-3-24-3.4-36.2c-0.3-11.2-1.2-22.5-1.8-33.7c-1.1-22.6-1.8-45.2-3.5-67.7c-0.9-12.6-3.2-25.2-5.5-37.6
			c-2-10.8-5.7-21.1-12.7-29.8c-7.5-9.4-17.3-14.6-29.5-15.5c-8.1-0.6-15.4,0.4-22,5.3c-3.7,2.8-5.7,6.6-5.6,11.4
			c0.1,5.7,2.7,10.1,6.3,14.1c5,5.5,10.4,10.6,15.2,16.2c7.9,9.2,13,20.2,14.7,31.9c2.5,17.3,3.4,34.7,4.9,52.1
			c1.1,12.9,1.9,25.8,3.2,38.7c1.3,13.1,2.9,26.2,4.8,39.2c2.1,14.4,5.6,28.4,11.4,41.8c0.4,1,1.5,1.8,2.3,2.8
			c0.2,1.1,0,2.6,0.7,3.7c3.2,5.1,6.2,10.5,10.1,15.1c4.3,5.1,9.6,9.2,16.4,10.7c12.2,2.7,22-1.2,29.6-12.5
			c4.1-6,7.4-12.5,11.2-18.7c0.7-1.2,2.1-1.9,3.2-2.9c0.7,1.3,1.8,2.5,2.1,3.8c2,9.7,3.6,19.5,5.8,29.2c3.2,13.5,6.4,26.9,10.4,40.2
			c2,6.6,4.8,13.2,8.6,18.8c8.2,12.2,22.8,10.8,28.6-2.8c2.5-5.9,4.6-12.5,4.9-18.9c0.7-14.2,0.5-28.5-0.1-42.7
			c-0.7-16.7-2.3-33.4-3.6-50.1c-0.1-1.2-0.9-2.3-1.4-3.6c0.3-0.6,1.1-1.5,1.1-2.5c0.2-7.4,0.3-14.9,0.3-22.3
			c0-7.4-0.6-14.9-0.2-22.3c0.2-4.5,1.3-9,3-13.2c2.5-6.3,7.1-7,11.1-1.5c4.3,5.8,8.3,12.1,11.2,18.7c7,16,12.5,32.5,21.6,47.6
			c11.5,19.2,25.3,36.3,43.2,49.7c21.9,16.5,46.9,26.2,74,30.1c24.1,3.5,47.2,0.2,68.4-12.7c8.8-5.3,16.6-11.8,23-19.9
			c1-1.3,1.3-3.3,2.2-4.7c0.9-1.3,2.5-2,3.3-3.3c5.6-8.4,7.1-17.9,8.1-27.6c0.7-6.6,1.4-13.2,5.3-18.8c4.5-6.4,10.1-6.7,14-0.6
			c3.2,5.1,5.8,10.5,9.4,15.3c3.1,4.3,6.6,8.7,10.9,11.7c4.3,3,9.5,5.3,14.7,6.4c5.1,1.1,10.7,1.1,15.8,0.2
			c4.7-0.9,9.4-3.1,13.6-5.6c9-5.4,14.3-14,17.8-23.7c2.2-6.2,3.8-12.6,5.1-19c3.1-15.9,7.9-31.1,18.2-44.1
			c8.2-10.4,17-20.1,29.6-25c15.3-6,30.3-5.8,43.6,5.4c6.5,5.5,10.9,12.8,13.2,20.6c3.1,10.5,5.2,21.5,6,32.4
			c1,13.7,0.5,27.5,0.1,41.3c-0.5,18.4-5.4,35.9-13.7,52.4c-13.7,27.1-34.9,47.1-60,63.3c-19.2,12.5-39.9,22.2-61.3,30.2
			c-3.8,1.4-7.7,2.9-11.6,4.2c-9.7,3.2-19.3,6.6-29.1,9.3c-20.4,5.5-40.9,10.8-61.5,15.7c-9.4,2.2-19.1,3.4-28.8,4.9
			c-9.2,1.5-18.4,3-27.6,4.2c-12.5,1.6-25,3.3-37.5,4.2c-22.6,1.6-45.2,2.6-67.8,3.7c-4.8,0.2-9.5,0.2-14.3,0
			c-4.5-0.1-9,1.2-13.6,0.1c-1.2-0.3-2.8,0.8-4.4,1.3c-1.9-2.2-5.2-2.4-7.9-0.6c-1.8-0.4-3.1-1-4.5-1.1c-6-0.3-12-0.6-18-0.7
			c-1.5,0-3,0.7-4.4,1.1c-0.8-0.5-1.8-1.5-3-1.6c-4-0.5-8.1-0.5-12.2-0.9c-19.2-2.1-38.6-3.7-57.7-6.8c-24.3-3.9-48.5-8.6-72.5-13.9
			c-38.5-8.4-76.4-19.2-113.9-31.2c-13.5-4.3-26.9-8.7-40.1-13.7c-23.6-8.9-46.2-20-66.8-34.8c-16.8-12.1-31.8-26-42.5-43.8
			c-21.4-35.4-23-72.5-7.9-110.6c8.6-21.8,29.7-28.5,49.4-25.1c4.1,0.7,5.3,2.4,5.8,6.6c0.6,5.9,1,11.9,2.3,17.7
			c2,9.5,4.6,19,7,28.4c0.3,1,1.3,1.9,2,3c0,0.8-0.3,2.1,0,3.1c6.5,18.8,15.5,36.3,28.2,51.7c11,13.3,25,22.5,40.3,29.9
			c16.2,7.9,32.9,12.2,51,7.4c17.4-4.6,31.8-13.4,41.4-28.7c7.4-11.8,10.2-25.3,11.2-39c1.5-19.6-3.6-37.2-18-51.2
			c-5.8-5.7-12.5-10.3-18.8-15.6c-3.3-2.8-6.5-5.8-10.3-9.2c2.4-1,3.7-1.6,5-2.1c6.1-2.4,12.3-4.6,18.4-7.2
			c11.6-5,20.3-12.7,22.7-25.9c0.3-1.8-0.1-3.7-0.2-5.4c0.5-1.6,1.3-3.2,1.4-4.8c0.8-15.3-4.5-28.7-14-40.4
			c-11.9-14.7-26.7-26-42.6-36c-17.1-10.8-35.7-18.6-54.5-25.9c-4.1-1.6-8.4-2.8-12.6-4.3c-13.1-4.5-26.3-8.6-39.5-12.9
			c-9.7-3.1-19.3-6.4-28.6-10.4c-13-5.6-25.5-12-36.6-20.8c-11.5-9.1-20.9-19.8-25.3-34.1c-3.4-11-4-22.3-3.6-33.7
			c0.4-12,2.5-23.8,6.2-35.1c6.7-20.2,17-38.7,29.5-55.9c3.4-4.6,6.7-9.4,10.3-13.8c22.7-27.8,50.4-49.5,81.7-66.9
			c23.1-12.8,46.8-24.6,71-35.2c46.8-20.5,95.1-36.7,145.1-47.3c13.7-2.9,27.5-5.4,41.3-7.4c14-2.1,28.1-3.7,42.1-5.1
			c12.5-1.2,25.1-1.7,37.7-2.6c1.8-0.1,3.6-0.9,5.5-1.4c1.1,0.3,2.7,1.2,4.2,1.2c14.9,0.1,29.8-0.1,44.7,0c8.3,0,16.5,0.3,24.8,0.7
			c8.1,0.4,16.3,0.8,24.4,1.6c7.8,0.7,15.7,1,23.5,2.1c29.6,3.9,58.9,9.4,87.3,18.7c24.8,8.2,46.5,17.9,67.1,31.4
			c11.4,7.5,22.3,15.8,32,25.4c6,6,12.3,11.8,17.6,18.4c9.1,11.4,18,23,26.2,35c12.2,18,21.8,37.5,29.5,57.9
			c3.1,8.1,5.8,16.5,8.3,24.8c5,16.7,8.3,33.8,9.6,51.3c1.2,15.7,1.5,31.3-1.6,47.4c0,0-10.6,12.3,8.1,17.7s23.1-11,23.1-11
			c5.8-20.1,6.5-41,4.9-62.3c-0.9-11.3-2.7-22.5-4.9-33.6c-4.2-21.6-10.5-42.6-20.9-62.1c-15.9-29.6-36.4-55.8-61.1-78.5
			c-11.6-10.6-24.2-20-36.4-30c-9.6-7.9-19.5-15.3-30.8-20.7c-8.8-4.2-17.5-8.7-26.2-13c-1.1-0.5-2.5-0.2-3.1-0.2
			c-1.8-1.1-3.1-2.3-4.7-2.9c-8.4-2.9-16.7-5.9-25.2-8.5c-23.7-7.3-47.8-12.6-72.2-16.6c-15.1-2.5-30.3-4.4-45.6-6
			c-34.9-3.8-69.8-4.9-104.9-3.8c-27.4,0.9-54.6,3.1-81.7,6.9c-17.1,2.4-34.3,5.2-51.1,9.1c-22.3,5.1-44.4,11-66.3,17.5
			c-30.3,8.9-59.8,20.1-87.8,34.9c-7,3.7-14.4,6.5-21.4,10.2c-23,12-45.2,25.5-66.3,40.6c-10.4,7.4-20.3,15.7-30.4,23.6
			c-15.9,12.5-30.1,26.8-42.4,42.8c-13.6,17.6-23.5,37.2-29.9,58.4c-3.3,10.8-5.9,21.8-7.7,33c-1.6,9.8-2.2,19.8-2,29.7
			c0.3,14.4,2.3,28.4,7.4,42.2c3.7,9.9,9.1,18.3,16.1,25.8c9.2,10,20.6,16.9,33.4,21.1c17.7,5.7,35.7,10.5,53.5,15.8
			c18.9,5.6,37.9,11,56.8,16.8c12.1,3.8,23.9,8.3,34.4,15.7c6.8,4.8,13,10.8,16.2,18.1c6.2,14.1,7.2,29.1,4.3,44.3
			c-0.2,1.3,0.2,2.7,0.2,3.7c-0.8,1.1-1.8,2.1-2.3,3.2c-4.2,10.8-11.5,18.4-23,20.7c-13.4,2.7-26.7,0.8-39.7-3.1
			c-2.9-0.9-4.8-3.1-4.9-6.1c-0.3-5.4-0.8-11,0-16.3c2.3-15.7,3.9-31.4,2.7-47.3c-1.1-15.2-7.9-27-22.3-33.4
			c-9.2-4-18.9-5.6-28.8-4.9c-6.4,0.5-12.8,1.7-18.9,3.6c-9.9,3.2-14.4,11.7-11.5,21.6c1.7,5.6,3.8,11.6,7.5,16.1
			c11.9,14.7,13.6,31.5,11.7,49.2c-0.4,3.9-1.2,7.8-2.6,11.5c-0.7,1.9-2.9,3.8-4.8,4.7c-2.5,1.1-5.5,1.7-8.3,1.7
			c-12.6,0-24.5,1.6-35.7,8.5c-7.5,4.6-14,9.9-19.1,16.9c-1.3,1.8-3.5,3.5-1.7,5.3c-1.2,1.3-2.5,2-3,3.2c-4.2,9.1-6.4,18.9-7.1,28.8
			c-1.2,15.8-1.3,31.5,0.6,47.3c1.1,8.9,2.7,17.5,5.6,25.8c2.2,6.3,5.6,12.1,8.3,18.3c2.6,6,7.2,10.7,11,15.8
			c8.9,12.1,20.1,22,32.2,30.9c2.8,2.1,5.6,4.1,8.4,6.1c2.8,1.9,5.7,3.5,8.3,5.6c2.3,1.8,5.6,1.7,7.3,4.4c0.1,0.2,0.4,0.2,0.6,0.3
			c6.6,3.4,13.2,7.2,19.9,10.3c13.1,6,26.4,11.8,39.7,17.5c1.1,0.5,2.6,0.1,4,0.1c0.6,0.7,1.1,1.8,1.9,2.1c5,1.9,10.1,3.8,15.3,5.3
			c24.6,6.9,49.2,14.1,74,20.3c26,6.5,52.1,12.7,78.4,17.6c27.7,5.1,55.6,8.9,83.6,12.4c18.8,2.3,37.8,3.2,56.7,4.5
			c9.3,0.6,18.7,1.2,28,1.1c25.7-0.2,51.4-0.3,77.1-1.5c18.9-0.8,37.7-2.6,56.4-5.2c25.2-3.6,50.3-8.1,75.4-12.7
			c11.9-2.2,23.8-5.2,35.4-8.6c21.1-6.2,42.1-12.7,62.9-19.7c13-4.4,25.9-9.5,38.6-14.8c24-10.1,47.3-21.3,65.7-40.7
			c12.5-13.2,23.9-27.3,33.4-42.8c15.6-25.5,20.3-53.6,18.6-83C1132.3,697.8,1128.9,683.5,1124.1,669.6z"/>
		<path class="st1" d="M947.4,386.1c-1.2-0.1-2.4,0-3.5,0.3c-1.1,0.3-2.1,0.8-2.9,1.4c-0.8,0.6-1.5,1.4-2,2.2
			c-0.5,0.8-0.9,1.7-1.1,2.5c-0.3,1.5,0.1,2.9,1.1,4.3c1,1.3,2.8,2.3,5.6,2.8c2.6,0.5,4.7,0.2,6.2-0.9c1.5-1.1,2.4-2.5,2.7-4.1
			c0.3-1.7,0-3.4-1-5.1C951.4,387.8,949.7,386.7,947.4,386.1z"/>
		<path class="st1" d="M989.4,378.9c3.9-5.1,6.6-9.7,8.2-13.8c0.8-2,1.3-3.9,1.6-5.7c0-0.1,0-0.1,0-0.2c0.1-0.4,0.2-1,0.2-1.8
			c0-0.2,0-0.4,0-0.6c0-1.2,0-2.4-0.2-3.5c-0.6-5.4-3.2-12.5-11.5-13.6c-12.5-1.6-19.7,10.2-9.7,17.2c9.8,6.9,10.9-4.2,10.9-4.4
			c0.1,0.3,0.2,0.6,0.3,1c0.1,0.9,0.1,2,0.1,3.4c-0.1,1.4-0.5,3.1-1.3,5c-0.7,1.7-1.6,3.6-2.9,5.7c-1.3,2.1-3,4.5-5.2,7.2
			c-2.2,2.7-4.8,5.6-8.1,8.8c-3.2,3.2-7,6.7-11.5,10.4c-0.4,0.4-0.7,0.8-0.9,1.1c-0.4,1-0.3,2,0.3,3c0.6,1.1,1.6,1.8,3,2.4
			c6.2,2.4,11,4,14.2,4.8c0.4,0.1,0.7,0.2,1.1,0.2l0,0c0,0,5.6,2,8.2-2.9c2.6-4.9-5-7.1-5-7.1l-5.7-2.2l0,0
			C981.5,388.2,986,383.3,989.4,378.9z"/>
		<path class="st1" d="M1090.3,501.5c-2.5,3.1-4.6,7.2-2.3,11.3c2.3,4.3,7,3.5,11.9,3.8c2-0.3,4.8-0.8,7.6-1.2
			c17.9-2.8,34.4-9.4,49.5-19.2c9.6-6.2,18.1-13.8,20.5-25.7c2.5-12.4-1.5-22.2-14.5-23.1c-14.9-1.1-28.7,3.2-37.2,16.5
			c-6.2,9.7-13.8,17.6-22.8,24.5C1098.2,492.1,1094.1,496.8,1090.3,501.5z"/>
		<path class="st1" d="M162.3,664.2c-2.3,0.9-4.6,2.3-6.3,4c-4.9,4.8-9.8,9.7-14.3,14.9c-11.9,14.2-18.7,30.5-19,50
			c0.1,2.1,0.2,5,0.5,7.9c1,9,2.7,17.9,7.9,25.6c2.9,4.4,8.4,7.1,13.3,5.7c8.6-2.5,15.6-7.3,16.9-16.6c1.1-8.3,0.5-16.9,0.5-25.4
			c0-4.6-0.5-9.2-0.6-13.8c-0.1-3.1-0.4-6.3,0.4-9.2c2-7.5,4.7-14.7,7-22.1c1.4-4.5,3.2-9.1,3.7-13.7
			C173,665.7,167.7,662.1,162.3,664.2z"/>
		<path class="st1" d="M1120.2,567c0.6,2.4,1.6,4.7,2.5,7c1.3,3.6,2.6,7.2,4,10.7c0.2,0.6,1.3,1.3,1.9,1.2c0.5-0.1,1.2-1.1,1.4-1.7
			c0.4-1.6,0.6-3.3,0.8-4.9c0-5.8-2.3-10.8-5.8-15.1c-0.9-1.1-3.3-1.1-5-1.5C1120,564.1,1119.8,565.6,1120.2,567z"/>
		<path class="st1" d="M78.3,510.6c11.7,9.5,25.4,15.4,39.8,19.3c14.5,3.9,29.3,6.9,44,10.2c6.7,1.5,13.6,2.8,20.3,4.1
			c0-0.1,0-0.2,0.1-0.3c1.2-0.1,2.4-0.1,3.6-0.2c7.2-0.9,10.7-6.5,7.8-13.2c-1-2.4-2.5-4.7-4.4-6.5c-2.9-2.7-6.2-5.1-9.6-7.3
			c-10.4-6.6-21.8-11.5-30.8-20.2c-5.3-5.1-10.9-9.8-16.6-14.3c-5.7-4.4-11.4-8.8-17.6-12.5c-4.7-2.9-10.1-4.8-15.1-7.2
			c-11.5-5.5-22.6-4.8-33.4,2c-9.7,6.2-12.1,15.2-6.8,25.4C64.1,498.4,71,504.7,78.3,510.6z"/>
		<path class="st1" d="M77.9,576.8c-0.8-0.1-1.7-0.1-2-0.1c-10.6,0-28.3,8.2-34.1,16.5c-3,4.3-5.3,9.4-6.7,14.4
			c-1.4,5.2,1.8,8.9,7.3,9.3c2.6,0.2,5.4-0.4,7.9-1.3c2.6-0.9,4.9-2.4,7.2-3.9c9.7-6.2,19.2-12.7,25.9-22.4
			C88.2,582.7,86,578,77.9,576.8z"/>
		<path class="st1" d="M839.9,155.9c-5.7-0.9-11.1,3.4-10.2,8.6c1.4,8.5,6.8,14.3,14,18.5c2.4,1.4,5.2,2.2,6.5,2.8
			c7.8,0,11-3.2,10.3-8.6C859.4,168.5,848.4,157.2,839.9,155.9z"/>
		<path class="st1" d="M422.4,193.7c-7.6,1.2-17.3,11.6-18,19.2c-0.3,3.2,1,6,4.1,6.7c2.9,0.6,6.3,0.8,9-0.1
			c6.5-2.1,11.3-6.7,14.6-12.6c4.1-7.3,0.5-13.3-8.2-13.3C423.6,193.7,422.9,193.6,422.4,193.7z"/>
		<path class="st1" d="M1156.3,639.2c-4.9-2.4-10-3.8-15.6-1.7c-4.4,1.7-6.1,4.7-4.1,9c1.5,3.2,4,6,5.7,9.1
			c3.2,5.8,7.3,11.5,8.9,17.7c2.3,8.8,2.5,18.2,3.9,27.2c1.3,8.4,2.8,16.9,4.9,25.1c1.5,5.5,3.4,11.3,6.6,15.9
			c6.6,9.8,16.6,10.3,25,2c7.3-7.2,10.2-16.3,10.4-27.2c-0.8-14.7-5.2-29.1-12.4-42.7C1181.8,659.1,1171.6,646.7,1156.3,639.2z"/>
		<path class="st1" d="M1237.5,510.8c-3.3-0.6-6.8-0.4-10.1,0.2c-10.3,1.8-19.6,6.2-28.6,11.2c-3,1.7-5.3,4.6-8.2,6.6
			c-2.5,1.7-3.2,3.9-2.4,6.5c0.9,2.7,2.9,4.6,6,4.9c8.9,0.8,17.8,1.7,26.7,2.5c0-0.1,0-0.3,0-0.4c1.8,0,3.6,0.1,5.4,0
			c7.9-0.7,15-3.2,19.4-10.4C1250.7,523.5,1246.5,512.4,1237.5,510.8z"/>
		<path class="st1" d="M991.8,413.3c0.9,0.4,1.9,0.6,3,0.6c1.1,0,2-0.5,2.7-1.4l36.4-43.9c0.4-0.9,0.4-1.9-0.2-3
			c-0.6-1.1-1.6-1.9-2.9-2.5l-10.7-4.9c-0.6-0.3-1.3-0.7-2.4-1.1c-0.1,0-0.2-0.1-0.3-0.1c-0.3-0.1-0.5-0.2-0.8-0.2
			c-5.6-1.6-7,1.5-7,1.5c-4.8,7.3,0.9,9.6,0.9,9.6l7.9,3.8l-29.2,35.4l-0.5,0.7c-0.5,1-0.4,2.1,0.3,3.1
			C989.7,412,990.6,412.8,991.8,413.3z"/>
		<path class="st1" d="M921.8,364.5c4.7-1,6.2-6.8,5.1-10.1c-0.9-2.8-7.9-1.6-10-1.1c0,0,0,0,0,0l-2.4-11.7c-0.3-1.3-1-2.1-2.1-2.5
			c-1.1-0.4-2.3-0.5-3.6-0.2c-1.2,0.2-2.2,0.7-3.2,1.5c-0.9,0.8-1.3,1.8-1,3.1l2.4,11.7l-8.4,1.6l-2.4-11.7c-0.3-1.3-1-2.1-2.1-2.5
			c-1.1-0.4-2.3-0.5-3.6-0.2c-1.2,0.2-2.2,0.7-3.2,1.5c-0.9,0.8-1.3,1.8-1,3.1l3.2,15.4c0.1,0.3,0.1,0.5,0.2,0.7
			c0,0,0.9,7.5,7.2,7.7c6.3,0.3,11-2.7,13.3,4.9c1.7,5.5,3.9,14.4,5.1,18.9l0.4,1.9c0.1,0.3,0.2,0.6,0.3,0.9c0,0,0,0,0,0l0,0
			c0.4,0.7,1,1.3,1.8,1.5c1.2,0.4,2.4,0.5,3.6,0.2c1.3-0.2,2.4-0.8,3.2-1.6c0.9-0.8,1.2-1.8,0.9-3.1l-4.9-23.4l0,0l-0.5-2.2l0,0l0,0
			l0-0.2C919.9,367.2,920.1,365,921.8,364.5z"/>
		<path class="st1" d="M714.1,207.4c-9.7,3.1-14.9,10.4-16.5,20.2c-1.2,7.4,2.7,11.8,10.1,11.7c10.4-0.1,20-8.3,21.6-18.5
			C730.5,212.3,722.2,204.8,714.1,207.4z"/>
		<path class="st1" d="M617.6,145.8c-9.3-1.1-22.5,11.9-23.2,22c-0.3,3.7,1.8,6.7,5.5,7.8c4.1,1.3,8.1,1.3,11.9-1.5
			c6.2-4.4,12.1-9.1,16.1-15.7c3.3-5.5,1.6-10.9-4.9-12C621.1,146.2,619.3,146,617.6,145.8z"/>
		<path class="st0" d="M-13.3-13.3v1049.9h1337.9V-13.3H-13.3z M1125.8,463.9c8.5-13.3,22.3-17.6,37.2-16.5
			c13,0.9,17,10.7,14.5,23.1c-2.4,11.9-10.9,19.5-20.5,25.7c-15.2,9.8-31.6,16.4-49.5,19.2c-2.8,0.4-5.7,0.9-7.6,1.2
			c-4.9-0.3-9.6,0.5-11.9-3.8c-2.2-4.1-0.2-8.2,2.3-11.3c3.8-4.7,7.9-9.4,12.7-13C1112,481.5,1119.6,473.6,1125.8,463.9z
			 M1130.7,579.3c-0.3,1.6-0.4,3.3-0.8,4.9c-0.2,0.7-0.8,1.7-1.4,1.7c-0.6,0.1-1.6-0.6-1.9-1.2c-1.4-3.5-2.7-7.1-4-10.7
			c-0.8-2.3-1.8-4.6-2.5-7c-0.4-1.4-0.2-2.9-0.3-4.4c1.7,0.5,4.1,0.4,5,1.5C1128.4,568.5,1130.7,573.4,1130.7,579.3z M66.4,464.5
			c10.7-6.9,21.9-7.5,33.4-2c5,2.4,10.4,4.3,15.1,7.2c6.1,3.8,11.9,8.1,17.6,12.5c5.7,4.5,11.4,9.2,16.6,14.3
			c9,8.7,20.4,13.6,30.8,20.2c3.4,2.2,6.7,4.6,9.6,7.3c1.9,1.7,3.4,4.1,4.4,6.5c2.9,6.7-0.6,12.4-7.8,13.2c-1.2,0.1-2.4,0.1-3.6,0.2
			c0,0.1,0,0.2-0.1,0.3c-6.8-1.4-13.6-2.6-20.3-4.1c-14.7-3.3-29.5-6.3-44-10.2c-14.4-3.9-28-9.8-39.8-19.3
			c-7.3-5.9-14.2-12.2-18.7-20.7C54.3,479.7,56.7,470.7,66.4,464.5z M83.5,589.4c-6.7,9.6-16.2,16.2-25.9,22.4
			c-2.3,1.5-4.7,3-7.2,3.9c-2.5,0.9-5.3,1.4-7.9,1.3c-5.5-0.4-8.7-4.1-7.3-9.3c1.4-5.1,3.6-10.2,6.7-14.4
			c5.9-8.3,23.5-16.5,34.1-16.5c0.3,0,1.2,0,2,0.1C86,578,88.2,582.7,83.5,589.4z M172.3,671.4c-0.5,4.7-2.3,9.2-3.7,13.7
			c-2.3,7.4-5,14.7-7,22.1c-0.8,2.9-0.4,6.1-0.4,9.2c0.1,4.6,0.6,9.2,0.6,13.8c0,8.5,0.6,17.1-0.5,25.4c-1.2,9.3-8.3,14.1-16.9,16.6
			c-4.9,1.4-10.4-1.3-13.3-5.7c-5.2-7.8-6.9-16.6-7.9-25.6c-0.3-2.9-0.4-5.7-0.5-7.9c0.3-19.5,7-35.8,19-50
			c4.4-5.3,9.3-10.1,14.3-14.9c1.8-1.7,4-3.1,6.3-4C167.7,662.1,173,665.7,172.3,671.4z M152.2,642.1c-6.5,3.7-14,5.1-21.6,3.3
			c-7.2-1.7-11.8-6.1-13.4-13.4c-1.7-7.6,0.6-14,6.3-19.2c0.7-0.6,1.9-0.6,2.3-0.8c1.5-1.3,2.4-2.6,3.7-3.2
			c15.5-6.9,31.6-12,48.5-14.1c10.1-1.3,20.3-1.4,30.5-1.5c3.3,0,6.9,1,10,2.4c1.8,0.8,4,3.1,4,4.8c0,1.9-1.7,4.7-3.5,5.5
			c-5,2.4-10.3,4.4-15.7,5.9c-10.1,2.8-18.7,8.2-27.1,14.3C168.4,631.8,160.5,637.3,152.2,642.1z M1114.6,795.5
			c-9.5,15.5-20.9,29.5-33.4,42.8c-18.4,19.4-41.7,30.6-65.7,40.7c-12.7,5.3-25.5,10.4-38.6,14.8c-20.8,7-41.8,13.5-62.9,19.7
			c-11.6,3.4-23.5,6.4-35.4,8.6c-25.1,4.6-50.2,9.2-75.4,12.7c-18.7,2.6-37.6,4.3-56.4,5.2c-25.7,1.2-51.4,1.2-77.1,1.5
			c-9.3,0.1-18.7-0.5-28-1.1c-18.9-1.3-37.9-2.1-56.7-4.5c-27.9-3.5-55.9-7.3-83.6-12.4c-26.3-4.9-52.4-11.1-78.4-17.6
			c-24.8-6.2-49.4-13.4-74-20.3c-5.2-1.4-10.2-3.4-15.3-5.3c-0.8-0.3-1.3-1.4-1.9-2.1c-1.3,0-2.8,0.4-4-0.1
			c-13.3-5.7-26.6-11.5-39.7-17.5c-6.8-3.1-13.3-6.8-19.9-10.3c-0.2-0.1-0.5-0.2-0.6-0.3c-1.7-2.7-5.1-2.6-7.3-4.4
			c-2.6-2.1-5.6-3.7-8.3-5.6c-2.9-2-5.6-4-8.4-6.1c-12.1-8.9-23.3-18.8-32.2-30.9c-3.8-5.2-8.3-9.8-11-15.8
			c-2.7-6.1-6.1-12-8.3-18.3c-2.9-8.3-4.5-16.9-5.6-25.8c-2-15.9-1.8-31.6-0.6-47.3c0.8-9.9,3-19.7,7.1-28.8c0.5-1.1,1.7-1.9,3-3.2
			c-1.8-1.8,0.4-3.5,1.7-5.3c5.1-7,11.6-12.2,19.1-16.9c11.2-7,23.1-8.5,35.7-8.5c2.8,0,5.8-0.6,8.3-1.7c2-0.9,4.1-2.8,4.8-4.7
			c1.4-3.6,2.2-7.6,2.6-11.5c1.9-17.7,0.1-34.5-11.7-49.2c-3.6-4.5-5.8-10.5-7.5-16.1c-2.9-9.9,1.6-18.4,11.5-21.6
			c6.1-2,12.5-3.2,18.9-3.6c9.9-0.7,19.6,0.9,28.8,4.9c14.5,6.4,21.2,18.3,22.3,33.4c1.2,15.8-0.3,31.6-2.7,47.3
			c-0.8,5.3-0.3,10.9,0,16.3c0.2,2.9,2.1,5.2,4.9,6.1c13,3.9,26.3,5.8,39.7,3.1c11.6-2.3,18.8-9.9,23-20.7c0.5-1.2,1.5-2.2,2.3-3.2
			c-0.1-1.1-0.5-2.5-0.2-3.7c2.9-15.2,1.9-30.3-4.3-44.3c-3.2-7.4-9.4-13.3-16.2-18.1c-10.5-7.4-22.3-12-34.4-15.7
			c-18.9-5.8-37.8-11.3-56.8-16.8c-17.9-5.2-35.8-10.1-53.5-15.8c-12.8-4.1-24.2-11.1-33.4-21.1c-6.9-7.5-12.4-15.9-16.1-25.8
			c-5.1-13.7-7.2-27.8-7.4-42.2c-0.2-9.9,0.5-19.9,2-29.7c1.8-11.1,4.4-22.2,7.7-33c6.5-21.2,16.4-40.8,29.9-58.4
			c12.4-16,26.5-30.3,42.4-42.8c10.1-7.9,19.9-16.1,30.4-23.6c21.1-15.1,43.3-28.6,66.3-40.6c7-3.7,14.5-6.5,21.4-10.2
			c28-14.8,57.5-26,87.8-34.9c21.9-6.5,44-12.3,66.3-17.5c16.8-3.9,34-6.6,51.1-9.1c27.1-3.9,54.3-6,81.7-6.9
			c35.1-1.1,70-0.1,104.9,3.8c15.2,1.7,30.5,3.6,45.6,6c24.4,4,48.6,9.3,72.2,16.6c8.5,2.6,16.8,5.6,25.2,8.5
			c1.6,0.5,2.9,1.8,4.7,2.9c0.6,0,2.1-0.3,3.1,0.2c8.8,4.2,17.4,8.8,26.2,13c11.3,5.4,21.2,12.8,30.8,20.7
			c12.1,10,24.8,19.4,36.4,30c24.7,22.7,45.2,48.9,61.1,78.5c10.4,19.4,16.6,40.5,20.9,62.1c2.2,11.1,4,22.4,4.9,33.6
			c1.7,21.3,0.9,42.3-4.9,62.3c0,0-4.4,16.4-23.1,11s-8.1-17.7-8.1-17.7c3.1-16.1,2.8-31.7,1.6-47.4c-1.3-17.4-4.6-34.5-9.6-51.3
			c-2.5-8.3-5.2-16.7-8.3-24.8c-7.7-20.4-17.3-39.9-29.5-57.9c-8.2-12.1-17.1-23.7-26.2-35c-5.3-6.6-11.5-12.5-17.6-18.4
			c-9.7-9.7-20.5-18-32-25.4c-20.6-13.4-42.3-23.2-67.1-31.4c-28.4-9.4-57.7-14.9-87.3-18.7c-7.8-1-15.7-1.4-23.5-2.1
			c-8.1-0.7-16.3-1.2-24.4-1.6c-8.3-0.4-16.5-0.7-24.8-0.7c-14.9-0.1-29.8,0.1-44.7,0c-1.5,0-3.1-0.8-4.2-1.2
			c-1.9,0.5-3.7,1.3-5.5,1.4c-12.6,0.9-25.1,1.4-37.7,2.6c-14.1,1.4-28.2,3-42.1,5.1c-13.8,2.1-27.6,4.6-41.3,7.4
			c-50.1,10.5-98.3,26.7-145.1,47.3c-24.2,10.6-47.9,22.3-71,35.2c-31.3,17.4-59,39.1-81.7,66.9c-3.6,4.5-6.9,9.2-10.3,13.8
			c-12.5,17.2-22.9,35.7-29.5,55.9c-3.7,11.3-5.8,23.1-6.2,35.1c-0.4,11.4,0.2,22.7,3.6,33.7c4.4,14.3,13.8,25.1,25.3,34.1
			c11.2,8.8,23.6,15.2,36.6,20.8c9.3,4,18.9,7.3,28.6,10.4c13.2,4.3,26.4,8.4,39.5,12.9c4.2,1.5,8.4,2.7,12.6,4.3
			c18.8,7.2,37.4,15.1,54.5,25.9c15.9,10,30.7,21.3,42.6,36c9.5,11.7,14.8,25.1,14,40.4c-0.1,1.6-0.9,3.2-1.4,4.8
			c0.1,1.7,0.5,3.6,0.2,5.4c-2.4,13.1-11.1,20.8-22.7,25.9c-6,2.6-12.2,4.8-18.4,7.2c-1.3,0.5-2.6,1.1-5,2.1
			c3.8,3.4,6.9,6.4,10.3,9.2c6.2,5.2,13,9.9,18.8,15.6c14.4,14,19.4,31.6,18,51.2c-1,13.7-3.7,27.2-11.2,39
			c-9.7,15.4-24.1,24.1-41.4,28.7c-18.2,4.8-34.8,0.5-51-7.4c-15.3-7.4-29.3-16.5-40.3-29.9c-12.7-15.5-21.7-32.9-28.2-51.7
			c-0.4-1.1,0-2.3,0-3.1c-0.8-1.1-1.8-1.9-2-3c-2.4-9.4-5-18.9-7-28.4c-1.2-5.8-1.6-11.8-2.3-17.7c-0.5-4.2-1.7-5.9-5.8-6.6
			c-19.7-3.4-40.8,3.3-49.4,25.1c-15.1,38-13.5,75.1,7.9,110.6c10.8,17.8,25.8,31.7,42.5,43.8c20.6,14.8,43.1,25.9,66.8,34.8
			c13.2,5,26.6,9.4,40.1,13.7c37.5,12,75.4,22.8,113.9,31.2c24,5.3,48.2,10,72.5,13.9c19.1,3.1,38.4,4.6,57.7,6.8
			c4,0.5,8.1,0.5,12.2,0.9c1.1,0.1,2.1,1.1,3,1.6c1.4-0.4,2.9-1.1,4.4-1.1c6,0.1,12,0.4,18,0.7c1.4,0.1,2.8,0.6,4.5,1.1
			c2.7-1.8,6-1.6,7.9,0.6c1.6-0.5,3.2-1.6,4.4-1.3c4.6,1.1,9.1-0.2,13.6-0.1c4.8,0.1,9.5,0.2,14.3,0c22.6-1.1,45.2-2.1,67.8-3.7
			c12.5-0.9,25-2.6,37.5-4.2c9.2-1.2,18.4-2.7,27.6-4.2c9.6-1.5,19.3-2.7,28.8-4.9c20.6-4.9,41.1-10.2,61.5-15.7
			c9.8-2.6,19.4-6.1,29.1-9.3c3.9-1.3,7.7-2.8,11.6-4.2c21.4-8.1,42-17.8,61.3-30.2c25.1-16.3,46.4-36.2,60-63.3
			c8.3-16.5,13.1-33.9,13.7-52.4c0.4-13.8,0.9-27.6-0.1-41.3c-0.8-10.9-2.9-21.9-6-32.4c-2.3-7.8-6.7-15.1-13.2-20.6
			c-13.3-11.2-28.3-11.4-43.6-5.4c-12.6,4.9-21.4,14.6-29.6,25c-10.3,13-15.1,28.1-18.2,44.1c-1.3,6.4-2.9,12.9-5.1,19
			c-3.4,9.7-8.7,18.3-17.8,23.7c-4.2,2.5-8.9,4.7-13.6,5.6c-5.1,0.9-10.7,0.9-15.8-0.2c-5.1-1.1-10.4-3.3-14.7-6.4
			c-4.3-3-7.8-7.4-10.9-11.7c-3.5-4.8-6.2-10.2-9.4-15.3c-3.9-6.1-9.4-5.8-14,0.6c-4,5.6-4.7,12.2-5.3,18.8
			c-1,9.7-2.6,19.3-8.1,27.6c-0.8,1.3-2.5,2-3.3,3.3c-1,1.4-1.2,3.4-2.2,4.7c-6.3,8.1-14.2,14.6-23,19.9
			c-21.2,12.8-44.3,16.1-68.4,12.7c-27.1-3.9-52-13.6-74-30.1c-17.9-13.4-31.6-30.5-43.2-49.7c-9.1-15.1-14.6-31.6-21.6-47.6
			c-2.9-6.6-6.9-12.9-11.2-18.7c-4-5.5-8.5-4.8-11.1,1.5c-1.7,4.1-2.8,8.7-3,13.2c-0.4,7.4,0.1,14.9,0.2,22.3
			c0,7.4-0.1,14.9-0.3,22.3c0,1-0.8,1.9-1.1,2.5c0.5,1.3,1.3,2.4,1.4,3.6c1.3,16.7,2.9,33.4,3.6,50.1c0.6,14.2,0.7,28.5,0.1,42.7
			c-0.3,6.4-2.3,13-4.9,18.9c-5.8,13.5-20.4,15-28.6,2.8c-3.8-5.7-6.7-12.3-8.6-18.8c-4-13.2-7.2-26.7-10.4-40.2
			c-2.3-9.7-3.8-19.5-5.8-29.2c-0.3-1.4-1.4-2.6-2.1-3.8c-1.1,1-2.5,1.7-3.2,2.9c-3.8,6.2-7.2,12.7-11.2,18.7
			c-7.7,11.3-17.5,15.3-29.6,12.5c-6.8-1.5-12.2-5.6-16.4-10.7c-3.9-4.6-6.9-10-10.1-15.1c-0.7-1.1-0.5-2.6-0.7-3.7
			c-0.8-1-1.9-1.8-2.3-2.8c-5.7-13.4-9.3-27.5-11.4-41.8c-1.9-13-3.5-26.1-4.8-39.2c-1.3-12.9-2.1-25.8-3.2-38.7
			c-1.5-17.4-2.4-34.9-4.9-52.1c-1.7-11.7-6.7-22.7-14.7-31.9c-4.8-5.6-10.3-10.7-15.2-16.2c-3.6-4-6.2-8.5-6.3-14.1
			c-0.1-4.9,1.9-8.7,5.6-11.4c6.5-4.8,13.9-5.9,22-5.3c12.3,1,22,6.1,29.5,15.5c7,8.7,10.7,19,12.7,29.8c2.3,12.4,4.5,25,5.5,37.6
			c1.7,22.5,2.3,45.1,3.5,67.7c0.6,11.2,1.5,22.5,1.8,33.7c0.3,12.1,1.2,24.2,3.4,36.2c1.5,8.2,4.2,15.9,9.7,22.3
			c3.3,3.8,5.7,3.6,7.7-0.9c1.4-3,2.1-6.3,3-9.6c1.3-4.8,1.3-9.7,1.5-14.5c0.4-11.5,0.9-23,1-34.5c0.1-13.3-0.2-26.6-0.4-39.9
			c-0.1-6-0.5-12.1-1-18.1c-1.3-16.7-2.5-33.5-4.1-50.2c-1.1-12.2-2.5-24.3-4.3-36.4c-1.3-8.8-2.7-17.6-4.2-26.4
			c-0.1-0.4-0.7-2.5-3.4-3.3c0,0,0,0-0.1,0c-0.8-0.2-1.7-0.5-2.5-0.8c-30.7-10.4-39.7-34.2-42.3-47.7
			c-27.5,33.6-60.7,25.4-60.7,25.4c0,0-0.1,0-0.1,0c-9.4-1-18.1-4.8-25.8-11.9c-4.7-4.3-8.6-9.7-11.7-15.8
			c-5.3-10.6-8.3-22.4-10-34.7c-0.1-0.5-0.1-1-0.2-1.4c0-0.2-0.2-0.2-0.4-0.4c-3.3,6.4-7.9,11.2-12.8,15.7c-7.7,7-15.7,13.3-25.1,16
			c-10.9,3.1-21.5,3.3-31.8-1.5c-11.9-5.6-18.2-16.9-21-31.5c-2.2-11.6-2.2-23.4-1.8-35.3c0.1-5.4,0.2-10.8,0.5-16.2
			c0.7-11.5,0.3-22.8-1.2-34c-1.1-7.8-3.9-14.3-9.4-18.8c-1.5-1.2-2.8-2.7-4-4.3c-2.8-3.7-3.6-8.2-2.7-13.2c0.6-3.7,3.4-6.5,7.1-7.3
			c6.3-1.4,12.2,0.3,17.9,3.1c6.7,3.2,11,9.2,14.1,16.7c4.4,10.8,5.4,22.8,5.9,34.8c0.7,15,0.8,30,2,44.9c0.9,10.9,5,20.2,12.3,26.9
			c6.9,6.4,15.4,6.6,23,0.5c6.8-5.5,11.3-13.4,15-22c4.5-10.2,7.1-21.2,8.8-32.3c1.5-9.7,2.6-19.5,3.9-29.2c0.5-4.1,2-7.4,4.7-10.1
			c4.3-4.3,8.6-4.1,11.9,0.9c3.1,4.8,4.9,10.5,5.6,16.4c0.9,7.6,1.4,15.4,1.6,23.1c0.5,17.8,1.4,35.6,6.2,52.4
			c3.8,13.3,10.1,24.7,19.6,33c3.7,2.9,10.3,6.7,18.4,4.7c11.6-2.8,17.3-12,18.1-13.3c0-0.1,0.1-0.1,0.1-0.2c0-0.4,0.2-8.2,2.7-5.9
			c0.4-0.9,0.7-1.9,1.1-2.8c0.2-0.7,0.4-1.3,0.7-2c0,0,39.1-133.1,5.6-187.3c0,0-4.7-21.2,9.8-30.4c12-7.6,24.6,6.7,33.2,33.7l0,0
			c0,0,2.4,5.7,4.6,17.4c0.1,0.5,0.2,1.1,0.4,1.6c0.6,3.1,1.1,6.6,1.5,10.3c2.8,23.4,3.3,61.1-7.9,113.9c0.9-0.7,1.9-1.4,2.8-2
			c2.3-1.6,4.8-3.1,7.3-4.1c0.1,0,0.1,0,0.2-0.1c2-5.5,6-9.1,12.2-9.5c21.7-1.3,25.4,8.2,25.3,14.9c0.6,0.1,1.2,0.3,1.8,0.4
			c6.2,1.5,12.4,3.6,18.2,6.5c5.3,2.6,10.5,5.8,15.2,9.7c2.6,2.2,4.9,4.7,7.1,7.4c0.8,0.9,1.5,1.9,2.2,3c3-4.5,6.7-8.6,10.6-12
			c2.5-2.2,5.2-4.2,7.9-6.1c2.3-1.6,4.8-3.1,7.3-4.1c3-1.3,6-2.4,9.2-2.7c0.7-0.1,1.4-0.1,2.1-0.2c3.9-8.3,11-14.8,23.6-6.2
			c8,5.5,9.9,11,8.8,16c4.8,1.4,9.5,3.1,14,5.4c5.3,2.6,10.5,5.8,15.2,9.7c2.6,2.2,4.9,4.7,7.1,7.4c0.1,0.1,0.1,0.2,0.2,0.3
			c0.5-0.9,1-1.7,1.6-2.5c7.2-10.7,17.3-18.5,28.1-22.7c4.2-1.6,8.4-2.9,12.7-3.8c0.8-0.2,1.7-0.4,2.6-0.6
			c28.9-5.4,57.2,10.2,72.2,14.4c11.9,3.3,15.6-34.3-1.3-75.9c-2.3-1.8-4.4-3.6-6.6-5.3c-2.8-2.1-5.9-3.9-8.6-6.2
			c-4.4-3.9-8.6-8.1-12.8-12.2c-1.6-1.5-0.7-2.8,0.9-3.2c1.3-0.4,2.9-0.3,4.3,0c4.9,1.1,9.2,3.4,12.8,6.4c-2.1-3.7-4.4-7.4-7-11.1
			c-35.3-51.6-56.4-57.8-46.1-89c8.4-25.6,27.1-11.7,33.5-5.9c0.5,0.3,0.9,0.6,1.2,0.9c1.3,1.4,2.6,2.8,3.9,4.2
			c5.3,6.2,10.3,12.8,14.6,20c4.3,7.2,8.2,15,11.6,22.9c6.7,15.3,11.9,31.6,16,48.3c4.4,17.8,7.7,36.1,9.9,54.6
			c2.1,17.8,3,35.8,3.8,53.8c0.5,11.7,1.2,23.5,2.6,35.1l0.4,1.1c0,0,4.1,42.7,38,55.5c-2.7-6.6-4.3-12.7-4.6-17.4l0,0
			c0,0-2.9-17,13.7-13.5c16.6,3.5,25.5,6,24.8,19.4c-0.6,13.4,5.4,27,21.7,32.9c5.7,0.5,11.6-1.4,17.3-6.3
			c11.4-9.9,3.8-20.7-4.1-27.8c-2.4-2.1-5.1-4-7.9-5.7c-3.3-1.2-6.6-2.4-9.8-3.7c-6.6-2.5-13.3-5.1-19.7-8.2
			c-6.7-3.2-13.5-6.8-19.5-11.6c-3.1-2.4-5.9-5.3-8.3-8.6c-0.8-1.1-1.5-2.3-2.1-3.5c-9.7-14.2-13-36.6,45.7-36.9
			c82.3-0.5,97.9,40.7,97.4,48.9c-0.6,8.2-13.6,14.3-13.6,14.3l0,0c-9.3,5.5-25.6,2.9-27.3-7.2c-1.5-9.2-15.1-17.3-26.2-22.5
			c-3.1-1.2-6.2-2.2-9.3-3.1c-12-3.3-24.5-4.9-36.9-4.5c-4.8,0.3-9.6,1-14.3,2.6c-0.8,0.3-1.6,0.7-2.4,1.1c0.3,0.4,0.6,0.8,0.9,1.3
			c2.2,2.5,4.7,4.5,7.3,6.3c1.6,1.1,3.3,2.1,5,3c16.2,9.3,33.8,14.4,50.7,21.4c8.6,3.5,17.2,7.3,24.9,13c3.8,2.8,7.3,6.3,10.1,10.4
			c3,4.5,5,9.8,6,15.5c1,5.6,0.6,11.6-1,17.1c-1,3.6-2.8,7-4.9,9.9c-7.7,11.7-25.5,23.3-55.8,19.1c-8.1-1.1-15.9-4.8-23.2-10.2
			c0,0,0,0,0,0l0,0c0,0-20.9,9-49.7-4c-28.8-13-36.6-54.3-37.4-73c0,0,0,0,0,0c0-0.3,0-0.7-0.1-1c-1,1.7-2.2,3.2-3.4,4.6
			c-9.7,14.8-40.5,52.4-92.6,28.5c-15.4-7.1-25.6-14.1-32.2-20.6c-5.5,14.3-21.9,44.2-62.4,37.9c10.3,4.8,20,10.7,28.4,18.7
			c2.8,2.6,5.2,5.6,7.6,8.6c0.9,1.2,1.2,2.9,1.8,4.7c0.9,1,2.5,2,3.1,3.5c3.1,6.9,4.3,14.2,5.3,21.8c1.7,13.2,0.6,25.9-4.2,38.2
			c-1.9,5-5.4,9.5-8.2,14.2c-0.2,0.3-0.5,0.5-0.7,0.8c-3.9,5-8.6,9.6-11.5,15.1c-3,5.7,0.2,12.1,0.9,18.1c2.1,18.5,7.9,36,15.6,52.8
			c11.4,25.1,31.5,40.3,57.3,48.3c20.1,6.2,40.8,6.7,61.6,5.1c12.9-1,25.7-3.2,37.6-8.6c11.9-5.4,21.4-13.5,25.2-27.6
			c-3.2,1-5.8,1.8-8.4,2.7c-11.3,3.7-22.5,8.2-34.8,7.2c-12.1-1.1-22.6-5.8-28-17.3c-3.7-7.9-5.1-16.5-4.3-25.4
			c0.2-2.2-0.1-4.5-0.3-6.8c-0.2-3-2.6-4.3-4.9-4.2c-1.9,0-4.9,1.3-5.5,2.8c-2.6,7-4.6,14.3-6.7,21.5c-2.2,7.5-3.6,15.3-6.7,22.4
			c-4.8,11-13.9,15.5-25.9,14.7c-14.8-1.1-24.7-8.8-30.1-22.1c-6.9-16.9-12.8-34.2-15-52.5c-1.8-15.3-1.6-30.7,0.5-45.9
			c3.1-23.4,9.2-45.9,20.2-67c5.3-10.2,11-20.2,19.7-27.8c4-3.5,8.7-6.6,13.6-8.3c8.5-2.8,15.3,1.4,20.9,7.8
			c6.7,7.8,10.9,16.9,14,26.5c1,3.1,2.5,6,3,9.2c0.6,3.7,1.6,7.2,2.2,10.9c0.6,3.7,1,7.4,1.1,11.1c0.4,11.2-1.1,22.1-8.4,31.2
			c-2,2.5-4.1,5.7-7.8,4.8c-3.7-0.9-4.6-4.6-5-7.7c-1.1-9.5-1.6-19.1-2.5-28.6c-1.1-13-2.2-26-3.7-38.9c-0.3-2.6-2.9-4.9-4.4-7.3
			c-2.2,1.7-5.2,3-6.3,5.3c-3.6,7.1-7.2,14.3-9.6,21.8c-7.5,23.5-10.8,47.9-12.4,72.4c-1.1,16.5-1.2,33.1,0.8,49.6
			c1.3,10.4,3.4,20.5,8.5,29.8c1.7,3.2,3.7,6.7,7.8,6.6c4.1-0.1,6-3.6,7.6-6.9c3.6-7.3,4.9-15,4-23.1c-0.6-6-3.1-8.2-9.2-8.2
			c-1.3,0-2.6-0.1-4-0.2c-5.5-0.4-8.3-3.4-9-9.7c-0.5-4.4,2.1-8.1,7.1-9.3c3.2-0.8,6.4-3.3,9.9-0.7c9.5-3.4,19.6-1.1,29.3-2.7
			c5.4-0.9,9.1-3.4,10.6-8.8c1.3-5,2.9-9.9,3.6-15c1.4-9.7,6.3-16.9,14.2-22.3c10-6.8,20.8-10.7,33.1-9.7
			c10.8,0.9,17.9,6.8,21.7,16.6c3.8,9.8,0.5,18.3-6.1,25.8c-5.2,6-11.9,9.5-19,12.6c-3.6,1.6-7.2,3.4-10.8,5
			c-5.7,2.6-8.8,6.9-9.2,13.4c-0.7,10.7,0,21.1,5.3,30.7c2.4,4.4,9.2,7.1,15,5.8c12.2-2.8,22.2-9.3,28-20.4
			c2.9-5.5,3.7-12.4,4.3-18.7c1.2-11.6,1.6-23.2,2.2-34.8c0.8-14.8,1.4-29.6,2.4-44.4c0.3-4.4,1.5-9,3.1-13.2
			c3.3-9.1,9.8-13.5,19.6-13.4c12.6,0.1,24.6,3.4,36.6,6.7c9.4,2.6,18.4,6.3,26.4,11.9c8.4,5.9,14.7,13.4,16.8,23.7
			c1.5,7.4,0.5,14.5-2.4,21.3c-4.3,10-10.8,18.6-19,25.7c-9.1,7.9-18.6,15.5-27.8,23.3c-5.1,4.4-8.8,9.7-7.7,16.8
			c0.4,2.7,1.2,5.4,2.4,7.8c3.6,7.2,9.1,12.6,16.3,16.3c7.2,3.7,14.1,2.7,19.7-3.1c2.5-2.6,4.7-5.7,6.6-8.9
			c4.4-7.2,6.5-15.3,9.1-23.3c2.2-6.9,5.2-13.4,7.4-20.3c5.2-16.5,14.9-30.1,26.9-42.2c11.9-11.9,26-19.8,42.9-22.1
			c19-2.6,36.1,2.2,51.4,13.5c13.3,9.9,22.2,23,27.6,38.5c4.8,13.9,8.2,28.1,9.1,42.9C1134.9,742,1130.2,770.1,1114.6,795.5z
			 M975.7,393.6l5.7,2.2c0,0,7.7,2.2,5,7.1c-2.6,4.9-8.2,2.9-8.2,2.9l0,0c-0.3-0.1-0.7-0.1-1.1-0.2c-3.3-0.8-8-2.4-14.2-4.8
			c-1.4-0.5-2.4-1.3-3-2.4c-0.6-1.1-0.7-2.1-0.3-3c0.1-0.4,0.4-0.7,0.9-1.1c4.5-3.8,8.3-7.3,11.5-10.4c3.2-3.2,5.9-6.1,8.1-8.8
			c2.2-2.7,3.9-5.1,5.2-7.2c1.3-2.1,2.3-4,2.9-5.7c0.7-1.9,1.2-3.6,1.3-5c0.1-1.4,0.1-2.5-0.1-3.4c-0.1-0.4-0.2-0.7-0.3-1
			c0,0.2-1.1,11.3-10.9,4.4c-9.9-7-2.8-18.8,9.7-17.2c8.3,1.1,10.9,8.2,11.5,13.6c0.2,1.1,0.2,2.2,0.2,3.5c0,0.2,0,0.4,0,0.6
			c0,0.8-0.1,1.5-0.2,1.8c0,0.1,0,0.1,0,0.2c-0.3,1.8-0.8,3.6-1.6,5.7c-1.6,4.1-4.3,8.6-8.2,13.8C986,383.3,981.5,388.2,975.7,393.6
			L975.7,393.6z M939.2,249c-1.1-4.7-0.9-9.3,1.4-13.6c2.5-4.6,6.3-6.2,11-4c7.7,3.7,12.5,10,13.9,18.4c0.9,5.4-5.8,12.2-11.7,12.3
			C947.4,262.3,941,256.6,939.2,249z M953.4,394.6c-0.3,1.6-1.2,3-2.7,4.1c-1.5,1.1-3.5,1.4-6.2,0.9c-2.7-0.5-4.6-1.4-5.6-2.8
			c-1-1.3-1.3-2.8-1.1-4.3c0.2-0.9,0.5-1.7,1.1-2.5c0.5-0.8,1.2-1.5,2-2.2c0.8-0.6,1.8-1.1,2.9-1.4c1.1-0.3,2.3-0.4,3.5-0.3
			c2.4,0.6,4,1.7,5,3.4C953.4,391.2,953.7,392.9,953.4,394.6z M988.6,407.9l0.5-0.7l29.2-35.4l-7.9-3.8c0,0-5.7-2.3-0.9-9.6
			c0,0,1.5-3.2,7-1.5c0.2,0.1,0.5,0.2,0.8,0.2c0.1,0,0.2,0.1,0.3,0.1c1.1,0.4,1.8,0.7,2.4,1.1l10.7,4.9c1.3,0.6,2.3,1.5,2.9,2.5
			c0.6,1.1,0.7,2.1,0.2,3l-36.4,43.9c-0.7,0.9-1.6,1.3-2.7,1.4c-1.1,0-2.1-0.2-3-0.6c-1.2-0.5-2.1-1.3-2.8-2.4
			C988.2,409.9,988.1,408.9,988.6,407.9z M1042,531.6c8.6,0,15.5,6.9,15.5,15.5s-6.9,15.5-15.5,15.5c-8.6,0-15.5-6.9-15.5-15.5
			S1033.4,531.6,1042,531.6z M920.1,368.9l0,0.2l0,0l0,0l0.5,2.2l0,0l4.9,23.4c0.3,1.3-0.1,2.3-0.9,3.1c-0.9,0.8-2,1.3-3.2,1.6
			c-1.2,0.2-2.4,0.1-3.6-0.2c-0.9-0.3-1.5-0.8-1.8-1.5l0,0c0,0,0,0,0,0c-0.1-0.3-0.2-0.6-0.3-0.9l-0.4-1.9
			c-1.1-4.5-3.4-13.3-5.1-18.9c-2.3-7.7-7-4.7-13.3-4.9c-6.3-0.3-7.2-7.7-7.2-7.7c-0.1-0.2-0.2-0.5-0.2-0.7l-3.2-15.4
			c-0.3-1.3,0.1-2.3,1-3.1c0.9-0.8,2-1.3,3.2-1.5c1.3-0.2,2.5-0.2,3.6,0.2c1.1,0.4,1.8,1.2,2.1,2.5l2.4,11.7l8.4-1.6l-2.4-11.7
			c-0.3-1.3,0.1-2.3,1-3.1c0.9-0.8,2-1.3,3.2-1.5c1.3-0.2,2.5-0.2,3.6,0.2c1.1,0.4,1.8,1.2,2.1,2.5l2.4,11.7c0,0,0,0,0,0
			c2.1-0.4,9-1.7,10,1.1c1.1,3.3-0.4,9.1-5.1,10.1C920.1,365,919.9,367.2,920.1,368.9z M850.2,185.8c-1.3-0.6-4.1-1.4-6.5-2.8
			c-7.2-4.2-12.6-10.1-14-18.5c-0.9-5.2,4.5-9.5,10.2-8.6c8.6,1.3,19.5,12.7,20.7,21.3C861.2,182.6,858,185.8,850.2,185.8z
			 M729.2,220.8c-1.6,10.2-11.2,18.5-21.6,18.5c-7.4,0.1-11.3-4.4-10.1-11.7c1.7-9.8,6.8-17.1,16.5-20.2
			C722.2,204.8,730.5,212.3,729.2,220.8z M627.8,158.4c-4,6.6-9.9,11.2-16.1,15.7c-3.9,2.8-7.8,2.7-11.9,1.5
			c-3.8-1.1-5.8-4.1-5.5-7.8c0.7-10.1,13.9-23.1,23.2-22c1.8,0.2,3.6,0.4,5.3,0.7C629.4,147.6,631.1,152.9,627.8,158.4z M432.1,207
			c-3.3,5.9-8.2,10.5-14.6,12.6c-2.7,0.9-6.1,0.7-9,0.1c-3.1-0.7-4.4-3.5-4.1-6.7c0.7-7.7,10.4-18,18-19.2c0.6-0.1,1.2-0.1,1.5-0.1
			C432.5,193.7,436.1,199.7,432.1,207z M1191.7,743.7c-8.3,8.3-18.4,7.7-25-2c-3.2-4.7-5.1-10.4-6.6-15.9
			c-2.2-8.2-3.6-16.7-4.9-25.1c-1.4-9.1-1.6-18.4-3.9-27.2c-1.6-6.3-5.7-11.9-8.9-17.7c-1.7-3.1-4.2-5.9-5.7-9.1
			c-2.1-4.3-0.3-7.3,4.1-9c5.5-2.1,10.6-0.7,15.6,1.7c15.3,7.5,25.6,19.9,33.4,34.6c7.3,13.6,11.6,28,12.4,42.7
			C1201.9,727.3,1199,736.4,1191.7,743.7z M1245.7,531.8c-4.4,7.2-11.4,9.7-19.4,10.4c-1.8,0.1-3.6,0-5.4,0c0,0.1,0,0.3,0,0.4
			c-8.9-0.8-17.8-1.7-26.7-2.5c-3.1-0.3-5.1-2.2-6-4.9c-0.8-2.5-0.1-4.8,2.4-6.5c2.9-2,5.2-4.9,8.2-6.6c9-5,18.4-9.4,28.6-11.2
			c3.3-0.6,6.8-0.8,10.1-0.2C1246.5,512.4,1250.7,523.5,1245.7,531.8z"/>
	</g>
</g>
</svg>
