<?xml version="1.0" encoding="utf-8"?>
<!-- Generator: Adobe Illustrator 24.0.2, SVG Export Plug-In . SVG Version: 6.00 Build 0)  -->
<svg version="1.1" xmlns="http://www.w3.org/2000/svg" xmlns:xlink="http://www.w3.org/1999/xlink" x="0px" y="0px"
	 viewBox="0 0 1309.2 1020.3" style="enable-background:new 0 0 1309.2 1020.3;" xml:space="preserve">
<style type="text/css">
	.st0{fill:#212529;fill-opacity:0.1;}
	<!-- #C72838 -->
	.st1{fill:none;}
</style>
<g id="Calque_1">
</g>
<g id="Calque_2">
	<g>
		<path class="st0" d="M78.3,510.6c11.7,9.5,25.4,15.4,39.8,19.3c14.5,3.9,29.3,6.9,44,10.2c6.7,1.5,13.6,2.8,20.3,4.1
			c0-0.1,0-0.2,0.1-0.3c1.2-0.1,2.4-0.1,3.6-0.2c7.2-0.9,10.7-6.5,7.8-13.2c-1-2.4-2.5-4.7-4.4-6.5c-2.9-2.7-6.2-5.1-9.6-7.3
			c-10.4-6.6-21.8-11.5-30.8-20.2c-5.3-5.1-10.9-9.8-16.6-14.3c-5.7-4.4-11.4-8.8-17.6-12.5c-4.7-2.9-10.1-4.8-15.1-7.2
			c-11.5-5.5-22.6-4.8-33.4,2c-9.7,6.2-12.1,15.2-6.8,25.4C64.1,498.4,71,504.7,78.3,510.6z"/>
		<path class="st0" d="M1156.3,639.2c-4.9-2.4-10-3.8-15.6-1.7c-4.4,1.7-6.1,4.7-4.1,9c1.5,3.2,4,6,5.7,9.1
			c3.2,5.8,7.3,11.5,8.9,17.7c2.3,8.8,2.5,18.2,3.9,27.2c1.3,8.4,2.8,16.9,4.9,25.1c1.5,5.5,3.4,11.3,6.6,15.9
			c6.6,9.8,16.6,10.3,25,2c7.3-7.2,10.2-16.3,10.4-27.2c-0.8-14.7-5.2-29.1-12.4-42.7C1181.8,659.1,1171.6,646.7,1156.3,639.2z
			 M1191.7,707.8c0,2.8,0.1,6.2-3,7c-3.2,0.8-3.8-2.7-4.8-4.8c-1.3-2.9-2.5-6-3.3-9.1c-3-12-7.9-23.2-13.4-34.2
			c-0.5-1-0.9-1.9-1.4-2.9c0.2-0.2,0.4-0.5,0.6-0.7c2.2,1.8,5,3.3,6.6,5.6c4.8,7.2,9.4,14.6,13.5,22.2c2.1,3.9,3.2,8.5,4.6,12.8
			C1191.6,704.9,1191.7,706.4,1191.7,707.8z"/>
		<path class="st0" d="M1090.3,501.5c-2.5,3.1-4.6,7.2-2.3,11.3c2.3,4.3,7,3.5,11.9,3.8c2-0.3,4.8-0.8,7.6-1.2
			c17.9-2.8,34.4-9.4,49.5-19.2c9.6-6.2,18.1-13.8,20.5-25.7c2.5-12.4-1.5-22.2-14.5-23.1c-14.9-1.1-28.7,3.2-37.2,16.5
			c-6.2,9.7-13.8,17.6-22.8,24.5C1098.2,492.1,1094.1,496.8,1090.3,501.5z M1161.2,458.2c3.5-0.1,6.5,4.1,6.5,9.5
			c-0.1,0.4,0,1.4-0.5,2.2c-0.6,1.1-1.5,2-2.3,3c-0.9-0.8-2.2-1.5-2.6-2.5c-1.3-3.3-2.4-6.7-3.3-10.2
			C1159,459.7,1160.4,458.2,1161.2,458.2z"/>
		<path class="st0" d="M162.3,664.2c-2.3,0.9-4.6,2.3-6.3,4c-4.9,4.8-9.8,9.7-14.3,14.9c-11.9,14.2-18.7,30.5-19,50
			c0.1,2.1,0.2,5,0.5,7.9c1,9,2.7,17.9,7.9,25.6c2.9,4.4,8.4,7.1,13.3,5.7c8.6-2.5,15.6-7.3,16.9-16.6c1.1-8.3,0.5-16.9,0.5-25.4
			c0-4.6-0.5-9.2-0.6-13.8c-0.1-3.1-0.4-6.3,0.4-9.2c2-7.5,4.7-14.7,7-22.1c1.4-4.5,3.2-9.1,3.7-13.7
			C173,665.7,167.7,662.1,162.3,664.2z"/>
		<path class="st0" d="M218.9,606c1.7-0.8,3.5-3.7,3.5-5.5c0-1.6-2.2-4-4-4.8c-3.1-1.4-6.6-2.4-10-2.4c-10.2,0.1-20.4,0.2-30.5,1.5
			c-16.8,2.2-33,7.2-48.5,14.1c-1.3,0.6-2.2,1.9-3.7,3.2c-0.3,0.1-1.6,0.1-2.3,0.8c-5.6,5.2-7.9,11.6-6.3,19.2
			c1.6,7.3,6.2,11.7,13.4,13.4c7.6,1.8,15,0.4,21.6-3.3c8.3-4.7,16.2-10.2,23.9-15.8c8.4-6.1,17-11.5,27.1-14.3
			C208.6,610.4,213.9,608.4,218.9,606z"/>
		<path class="st0" d="M1237.5,510.8c-3.3-0.6-6.8-0.4-10.1,0.2c-10.3,1.8-19.6,6.2-28.6,11.2c-3,1.7-5.3,4.6-8.2,6.6
			c-2.5,1.7-3.2,3.9-2.4,6.5c0.9,2.7,2.9,4.6,6,4.9c8.9,0.8,17.8,1.7,26.7,2.5c0-0.1,0-0.3,0-0.4c1.8,0,3.6,0.1,5.4,0
			c7.9-0.7,15-3.2,19.4-10.4C1250.7,523.5,1246.5,512.4,1237.5,510.8z M1223.3,523.7c3.2-3.1,5.8-3.7,10.2-2.5
			C1233.1,525.4,1229.8,526.2,1223.3,523.7z"/>
		<path class="st0" d="M77.9,576.8c-0.8-0.1-1.7-0.1-2-0.1c-10.6,0-28.3,8.2-34.1,16.5c-3,4.3-5.3,9.4-6.7,14.4
			c-1.4,5.2,1.8,8.9,7.3,9.3c2.6,0.2,5.4-0.4,7.9-1.3c2.6-0.9,4.9-2.4,7.2-3.9c9.7-6.2,19.2-12.7,25.9-22.4
			C88.2,582.7,86,578,77.9,576.8z"/>
		<path class="st0" d="M714.1,207.4c-9.7,3.1-14.9,10.4-16.5,20.2c-1.2,7.4,2.7,11.8,10.1,11.7c10.4-0.1,20-8.3,21.6-18.5
			C730.5,212.3,722.2,204.8,714.1,207.4z"/>
		<path class="st0" d="M617.6,145.8c-9.3-1.1-22.5,11.9-23.2,22c-0.3,3.7,1.8,6.7,5.5,7.8c4.1,1.3,8.1,1.3,11.9-1.5
			c6.2-4.4,12.1-9.1,16.1-15.7c3.3-5.5,1.6-10.9-4.9-12C621.1,146.2,619.3,146,617.6,145.8z"/>
		<path class="st0" d="M965.6,249.9c-1.4-8.4-6.2-14.8-13.9-18.4c-4.7-2.3-8.6-0.7-11,4c-2.3,4.3-2.5,8.9-1.4,13.6
			c1.8,7.6,8.2,13.2,14.7,13.1C959.7,262.1,966.5,255.3,965.6,249.9z"/>
		<path class="st0" d="M839.9,155.9c-5.7-0.9-11.1,3.4-10.2,8.6c1.4,8.5,6.8,14.3,14,18.5c2.4,1.4,5.2,2.2,6.5,2.8
			c7.8,0,11-3.2,10.3-8.6C859.4,168.5,848.4,157.2,839.9,155.9z"/>
		<path class="st0" d="M422.4,193.7c-7.6,1.2-17.3,11.6-18,19.2c-0.3,3.2,1,6,4.1,6.7c2.9,0.6,6.3,0.8,9-0.1
			c6.5-2.1,11.3-6.7,14.6-12.6c4.1-7.3,0.5-13.3-8.2-13.3C423.6,193.7,422.9,193.6,422.4,193.7z"/>
		<path class="st0" d="M1120.2,567c0.6,2.4,1.6,4.7,2.5,7c1.3,3.6,2.6,7.2,4,10.7c0.2,0.6,1.3,1.3,1.9,1.2c0.5-0.1,1.2-1.1,1.4-1.7
			c0.4-1.6,0.6-3.3,0.8-4.9c0-5.8-2.3-10.8-5.8-15.1c-0.9-1.1-3.3-1.1-5-1.5C1120,564.1,1119.8,565.6,1120.2,567z"/>
		<path class="st0" d="M1124.1,669.6c-5.4-15.5-14.3-28.7-27.6-38.5c-15.3-11.3-32.4-16.2-51.4-13.5c-16.9,2.3-31,10.2-42.9,22.1
			c-12,12.1-21.7,25.7-26.9,42.2c-2.2,6.9-5.2,13.4-7.4,20.3c-2.5,8-4.7,16.1-9.1,23.3c-1.9,3.2-4.1,6.2-6.6,8.9
			c-5.6,5.8-12.5,6.8-19.7,3.1c-7.1-3.7-12.7-9.1-16.3-16.3c-1.2-2.4-2-5.2-2.4-7.8c-1.1-7.2,2.5-12.5,7.7-16.8
			c9.2-7.8,18.7-15.4,27.8-23.3c8.2-7.1,14.7-15.7,19-25.7c3-6.8,3.9-14,2.4-21.3c-2.1-10.4-8.3-17.8-16.8-23.7
			c-8.1-5.6-17-9.3-26.4-11.9c-12-3.3-24-6.6-36.6-6.7c-9.8-0.1-16.2,4.3-19.6,13.4c-1.5,4.2-2.7,8.7-3.1,13.2
			c-1.1,14.8-1.6,29.6-2.4,44.4c-0.6,11.6-1,23.3-2.2,34.8c-0.6,6.4-1.5,13.2-4.3,18.7c-5.7,11.1-15.8,17.6-28,20.4
			c-5.8,1.3-12.6-1.4-15-5.8c-5.3-9.6-6-20-5.3-30.7c0.4-6.4,3.5-10.7,9.2-13.4c3.6-1.7,7.1-3.5,10.8-5c7.1-3,13.8-6.6,19-12.6
			c6.6-7.5,9.9-16,6.1-25.8c-3.8-9.9-10.9-15.7-21.7-16.6c-12.3-1-23.1,2.9-33.1,9.7c-7.9,5.4-12.8,12.6-14.2,22.3
			c-0.7,5.1-2.3,10-3.6,15c-1.4,5.4-5.1,7.9-10.6,8.8c-9.7,1.6-19.8-0.8-29.3,2.7c-3.5-2.6-6.7-0.1-9.9,0.7c-5,1.3-7.7,4.9-7.1,9.3
			c0.8,6.3,3.5,9.3,9,9.7c1.3,0.1,2.6,0.1,4,0.2c6,0.1,8.5,2.2,9.2,8.2c0.8,8.1-0.4,15.8-4,23.1c-1.6,3.2-3.5,6.8-7.6,6.9
			c-4.2,0.1-6.1-3.4-7.8-6.6c-5.1-9.3-7.2-19.4-8.5-29.8c-2-16.5-1.9-33-0.8-49.6c1.7-24.6,5-48.9,12.4-72.4
			c2.4-7.5,6-14.8,9.6-21.8c1.1-2.2,4.2-3.5,6.3-5.3c1.5,2.4,4.1,4.7,4.4,7.3c1.6,12.9,2.6,25.9,3.7,38.9c0.8,9.5,1.4,19.1,2.5,28.6
			c0.3,3.1,1.3,6.8,5,7.7c3.7,0.9,5.8-2.3,7.8-4.8c7.4-9.1,8.8-20,8.4-31.2c-0.1-3.7-0.5-7.4-1.1-11.1c-0.6-3.7-1.6-7.2-2.2-10.9
			c-0.5-3.2-2-6.2-3-9.2c-3.1-9.6-7.3-18.8-14-26.5c-5.5-6.4-12.4-10.6-20.9-7.8c-4.9,1.6-9.7,4.8-13.6,8.3
			c-8.7,7.6-14.4,17.6-19.7,27.8c-11,21-17.1,43.6-20.2,67c-2,15.3-2.3,30.6-0.5,45.9c2.2,18.3,8.1,35.6,15,52.5
			c5.4,13.3,15.3,21,30.1,22.1c12,0.9,21.1-3.6,25.9-14.7c3.1-7.1,4.4-14.9,6.7-22.4c2.1-7.2,4.1-14.5,6.7-21.5
			c0.6-1.5,3.6-2.8,5.5-2.8c2.3-0.1,4.7,1.3,4.9,4.2c0.2,2.3,0.5,4.5,0.3,6.8c-0.8,8.9,0.6,17.5,4.3,25.4
			c5.4,11.5,15.8,16.2,28,17.3c12.2,1.1,23.4-3.5,34.8-7.2c2.6-0.9,5.3-1.7,8.4-2.7c-3.8,14.1-13.3,22.2-25.2,27.6
			c-11.9,5.4-24.6,7.6-37.6,8.6c-20.8,1.6-41.5,1.1-61.6-5.1c-25.8-8-45.9-23.3-57.3-48.3c-7.7-16.8-13.4-34.4-15.6-52.8
			c-0.7-6-3.9-12.4-0.9-18.1c2.9-5.5,7.6-10.1,11.5-15.1c0.2-0.3,0.5-0.5,0.7-0.8c2.8-4.7,6.3-9.2,8.2-14.2
			c4.7-12.3,5.8-25,4.2-38.2c-1-7.6-2.2-14.9-5.3-21.8c-0.7-1.5-2.2-2.6-3.1-3.5c-0.6-1.7-0.9-3.5-1.8-4.7c-2.3-3-4.8-6-7.6-8.6
			c-8.4-8-18-13.9-28.4-18.7c40.5,6.3,56.9-23.6,62.4-37.9c6.6,6.5,16.8,13.5,32.2,20.6c52.1,23.9,82.9-13.7,92.6-28.5
			c1.2-1.4,2.4-2.9,3.4-4.6c0,0.3,0,0.7,0.1,1c0,0,0,0,0,0c0.8,18.7,8.6,60,37.4,73c28.8,13,49.7,4,49.7,4l0,0c0,0,0,0,0,0
			c7.2,5.3,15.1,9.1,23.2,10.2c30.3,4.1,48.1-7.4,55.8-19.1c2.1-2.9,3.9-6.3,4.9-9.9c1.6-5.5,2-11.5,1-17.1c-1.1-5.7-3-11-6-15.5
			c-2.8-4.1-6.3-7.7-10.1-10.4c-7.7-5.6-16.4-9.5-24.9-13c-17-6.9-34.6-12.1-50.7-21.4c-1.7-1-3.3-2-5-3c-2.6-1.8-5.1-3.9-7.3-6.3
			c-0.3-0.4-0.6-0.8-0.9-1.3c0.8-0.4,1.6-0.8,2.4-1.1c4.7-1.6,9.5-2.3,14.3-2.6c12.5-0.4,24.9,1.2,36.9,4.5c3.1,0.9,6.2,2,9.3,3.1
			c11.1,5.2,24.7,13.3,26.2,22.5c1.7,10.1,18.1,12.7,27.3,7.2l0,0c0,0,13.1-6.1,13.6-14.3c0.6-8.2-15.1-49.3-97.4-48.9
			c-58.8,0.3-55.5,22.7-45.7,36.9c0.6,1.3,1.4,2.5,2.1,3.5c2.4,3.3,5.2,6.2,8.3,8.6c6.1,4.7,12.8,8.3,19.5,11.6
			c6.5,3.1,13.1,5.7,19.7,8.2c3.3,1.2,6.5,2.4,9.8,3.7c2.8,1.7,5.5,3.6,7.9,5.7c8,7.1,15.5,17.9,4.1,27.8
			c-5.7,4.9-11.5,6.8-17.3,6.3c-16.3-5.8-22.3-19.5-21.7-32.9c0.6-13.4-8.2-15.9-24.8-19.4c-16.6-3.5-13.7,13.5-13.7,13.5l0,0
			c0.2,4.8,1.9,10.8,4.6,17.4c-33.9-12.8-38-55.5-38-55.5l-0.4-1.1c-1.5-11.6-2.1-23.4-2.6-35.1c-0.8-18-1.7-36-3.8-53.8
			c-2.2-18.5-5.5-36.8-9.9-54.6c-4.1-16.7-9.3-33-16-48.3c-3.5-7.9-7.3-15.6-11.6-22.9c-4.3-7.2-9.2-13.9-14.6-20
			c-1.3-1.4-2.5-2.9-3.9-4.2c-0.4-0.4-0.8-0.7-1.2-0.9c-6.5-5.8-25.1-19.6-33.5,5.9c-10.3,31.2,10.8,37.3,46.1,89
			c2.5,3.7,4.8,7.4,7,11.1c-3.6-3-7.9-5.3-12.8-6.4c-1.4-0.3-2.9-0.4-4.3,0c-1.6,0.5-2.5,1.7-0.9,3.2c4.2,4.1,8.4,8.3,12.8,12.2
			c2.6,2.3,5.8,4.1,8.6,6.2c2.2,1.7,4.4,3.5,6.6,5.3c16.9,41.6,13.3,79.2,1.3,75.9c-15-4.1-43.3-19.7-72.2-14.4
			c-0.9,0.2-1.8,0.4-2.6,0.6c-4.3,0.8-8.5,2.1-12.7,3.8c-10.8,4.1-20.9,11.9-28.1,22.7c-0.5,0.8-1.1,1.7-1.6,2.5
			c-0.1-0.1-0.1-0.2-0.2-0.3c-2.2-2.7-4.5-5.2-7.1-7.4c-4.7-3.9-9.9-7.1-15.2-9.7c-4.5-2.3-9.2-4-14-5.4c1.1-5-0.8-10.5-8.8-16
			c-12.6-8.6-19.7-2.1-23.6,6.2c-0.7,0-1.4,0.1-2.1,0.2c-3.1,0.3-6.2,1.4-9.2,2.7c-2.5,1.1-4.9,2.5-7.3,4.1
			c-2.7,1.9-5.4,3.9-7.9,6.1c-3.9,3.4-7.6,7.4-10.6,12c-0.7-1-1.4-2-2.2-3c-2.2-2.7-4.5-5.2-7.1-7.4c-4.7-3.9-9.9-7.1-15.2-9.7
			c-5.8-2.9-12-5-18.2-6.5c-0.6-0.1-1.2-0.3-1.8-0.4c0-6.7-3.7-16.2-25.3-14.9c-6.2,0.4-10.2,3.9-12.2,9.5c-0.1,0-0.1,0-0.2,0.1
			c-2.5,1.1-4.9,2.5-7.3,4.1c-0.9,0.7-1.9,1.3-2.8,2c11.3-52.8,10.8-90.5,7.9-113.9c-0.3-3.8-0.8-7.3-1.5-10.3
			c-0.1-0.5-0.2-1.1-0.4-1.6c-2.2-11.7-4.6-17.4-4.6-17.4l0,0c-8.6-27.1-21.2-41.3-33.2-33.7c-14.6,9.2-9.8,30.4-9.8,30.4
			c33.5,54.2-5.6,187.3-5.6,187.3c-0.2,0.7-0.4,1.3-0.7,2c-0.3,1-0.7,1.9-1.1,2.8c-2.5-2.3-2.7,5.5-2.7,5.9c0,0.1-0.1,0.1-0.1,0.2
			c-0.8,1.4-6.5,10.5-18.1,13.3c-8.1,2-14.7-1.8-18.4-4.7c-9.5-8.3-15.8-19.7-19.6-33c-4.8-16.8-5.6-34.6-6.2-52.4
			c-0.2-7.7-0.7-15.5-1.6-23.1c-0.7-5.9-2.5-11.7-5.6-16.4c-3.3-5-7.6-5.3-11.9-0.9c-2.7,2.7-4.2,6.1-4.7,10.1
			c-1.3,9.8-2.4,19.5-3.9,29.2c-1.7,11.2-4.3,22.1-8.8,32.3c-3.8,8.5-8.2,16.5-15,22c-7.5,6.1-16.1,5.9-23-0.5
			c-7.2-6.8-11.4-16.1-12.3-26.9c-1.2-14.9-1.3-29.9-2-44.9c-0.6-12-1.5-24-5.9-34.8c-3-7.5-7.4-13.5-14.1-16.7
			c-5.7-2.7-11.5-4.5-17.9-3.1c-3.7,0.8-6.4,3.6-7.1,7.3c-0.9,5,0,9.5,2.7,13.2c1.2,1.6,2.5,3.1,4,4.3c5.6,4.5,8.4,11,9.4,18.8
			c1.5,11.2,1.9,22.6,1.2,34c-0.3,5.4-0.4,10.8-0.5,16.2c-0.3,11.9-0.4,23.8,1.8,35.3c2.8,14.6,9.2,25.9,21,31.5
			c10.2,4.9,20.9,4.7,31.8,1.5c9.5-2.7,17.4-9,25.1-16c4.9-4.4,9.5-9.3,12.8-15.7c0.2,0.1,0.4,0.2,0.4,0.4c0.1,0.5,0.2,1,0.2,1.4
			c1.7,12.3,4.7,24.1,10,34.7c3.1,6.2,7,11.5,11.7,15.8c7.7,7.1,16.4,10.9,25.8,11.9c0,0,0.1,0,0.1,0c0,0,33.2,8.2,60.7-25.4
			c2.6,13.5,11.6,37.3,42.3,47.7c0.8,0.3,1.7,0.5,2.5,0.8c0,0,0,0,0.1,0c2.6,0.8,3.3,2.9,3.4,3.3c1.5,8.8,2.9,17.6,4.2,26.4
			c1.8,12.1,3.1,24.2,4.3,36.4c1.6,16.7,2.8,33.5,4.1,50.2c0.5,6,0.8,12.1,1,18.1c0.3,13.3,0.5,26.6,0.4,39.9
			c-0.1,11.5-0.6,23-1,34.5c-0.2,4.9-0.2,9.8-1.5,14.5c-0.9,3.2-1.6,6.5-3,9.6c-2,4.5-4.5,4.7-7.7,0.9c-5.5-6.4-8.2-14.2-9.7-22.3
			c-2.2-11.9-3-24-3.4-36.2c-0.3-11.2-1.2-22.5-1.8-33.7c-1.1-22.6-1.8-45.2-3.5-67.7c-0.9-12.6-3.2-25.2-5.5-37.6
			c-2-10.8-5.7-21.1-12.7-29.8c-7.5-9.4-17.3-14.6-29.5-15.5c-8.1-0.6-15.4,0.4-22,5.3c-3.7,2.8-5.7,6.6-5.6,11.4
			c0.1,5.7,2.7,10.1,6.3,14.1c5,5.5,10.4,10.6,15.2,16.2c7.9,9.2,13,20.2,14.7,31.9c2.5,17.3,3.4,34.7,4.9,52.1
			c1.1,12.9,1.9,25.8,3.2,38.7c1.3,13.1,2.9,26.2,4.8,39.2c2.1,14.4,5.6,28.4,11.4,41.8c0.4,1,1.5,1.8,2.3,2.8
			c0.2,1.1,0,2.6,0.7,3.7c3.2,5.1,6.2,10.5,10.1,15.1c4.3,5.1,9.6,9.2,16.4,10.7c12.2,2.7,22-1.2,29.6-12.5
			c4.1-6,7.4-12.5,11.2-18.7c0.7-1.2,2.1-1.9,3.2-2.9c0.7,1.3,1.8,2.5,2.1,3.8c2,9.7,3.6,19.5,5.8,29.2c3.2,13.5,6.4,26.9,10.4,40.2
			c2,6.6,4.8,13.2,8.6,18.8c8.2,12.2,22.8,10.8,28.6-2.8c2.5-5.9,4.6-12.5,4.9-18.9c0.7-14.2,0.5-28.5-0.1-42.7
			c-0.7-16.7-2.3-33.4-3.6-50.1c-0.1-1.2-0.9-2.3-1.4-3.6c0.3-0.6,1.1-1.5,1.1-2.5c0.2-7.4,0.3-14.9,0.3-22.3
			c0-7.4-0.6-14.9-0.2-22.3c0.2-4.5,1.3-9,3-13.2c2.5-6.3,7.1-7,11.1-1.5c4.3,5.8,8.3,12.1,11.2,18.7c7,16,12.5,32.5,21.6,47.6
			c11.5,19.2,25.3,36.3,43.2,49.7c21.9,16.5,46.9,26.2,74,30.1c24.1,3.5,47.2,0.2,68.4-12.7c8.8-5.3,16.6-11.8,23-19.9
			c1-1.3,1.3-3.3,2.2-4.7c0.9-1.3,2.5-2,3.3-3.3c5.6-8.4,7.1-17.9,8.1-27.6c0.7-6.6,1.4-13.2,5.3-18.8c4.5-6.4,10.1-6.7,14-0.6
			c3.2,5.1,5.8,10.5,9.4,15.3c3.1,4.3,6.6,8.7,10.9,11.7c4.3,3,9.5,5.3,14.7,6.4c5.1,1.1,10.7,1.1,15.8,0.2
			c4.7-0.9,9.4-3.1,13.6-5.6c9-5.4,14.3-14,17.8-23.7c2.2-6.2,3.8-12.6,5.1-19c3.1-15.9,7.9-31.1,18.2-44.1
			c8.2-10.4,17-20.1,29.6-25c15.3-6,30.3-5.8,43.6,5.4c6.5,5.5,10.9,12.8,13.2,20.6c3.1,10.5,5.2,21.5,6,32.4
			c1,13.7,0.5,27.5,0.1,41.3c-0.5,18.4-5.4,35.9-13.7,52.4c-13.7,27.1-34.9,47.1-60,63.3c-19.2,12.5-39.9,22.2-61.3,30.2
			c-3.8,1.4-7.7,2.9-11.6,4.2c-9.7,3.2-19.3,6.6-29.1,9.3c-20.4,5.5-40.9,10.8-61.5,15.7c-9.4,2.2-19.1,3.4-28.8,4.9
			c-9.2,1.5-18.4,3-27.6,4.2c-12.5,1.6-25,3.3-37.5,4.2c-22.6,1.6-45.2,2.6-67.8,3.7c-4.8,0.2-9.5,0.2-14.3,0
			c-4.5-0.1-9,1.2-13.6,0.1c-1.2-0.3-2.8,0.8-4.4,1.3c-1.9-2.2-5.2-2.4-7.9-0.6c-1.8-0.4-3.1-1-4.5-1.1c-6-0.3-12-0.6-18-0.7
			c-1.5,0-3,0.7-4.4,1.1c-0.8-0.5-1.8-1.5-3-1.6c-4-0.5-8.1-0.5-12.2-0.9c-19.2-2.1-38.6-3.7-57.7-6.8c-24.3-3.9-48.5-8.6-72.5-13.9
			c-38.5-8.4-76.4-19.2-113.9-31.2c-13.5-4.3-26.9-8.7-40.1-13.7c-23.6-8.9-46.2-20-66.8-34.8c-16.8-12.1-31.8-26-42.5-43.8
			c-21.4-35.4-23-72.5-7.9-110.6c8.6-21.8,29.7-28.5,49.4-25.1c4.1,0.7,5.3,2.4,5.8,6.6c0.6,5.9,1,11.9,2.3,17.7
			c2,9.5,4.6,19,7,28.4c0.3,1,1.3,1.9,2,3c0,0.8-0.3,2.1,0,3.1c6.5,18.8,15.5,36.3,28.2,51.7c11,13.3,25,22.5,40.3,29.9
			c16.2,7.9,32.9,12.2,51,7.4c17.4-4.6,31.8-13.4,41.4-28.7c7.4-11.8,10.2-25.3,11.2-39c1.5-19.6-3.6-37.2-18-51.2
			c-5.8-5.7-12.5-10.3-18.8-15.6c-3.3-2.8-6.5-5.8-10.3-9.2c2.4-1,3.7-1.6,5-2.1c6.1-2.4,12.3-4.6,18.4-7.2
			c11.6-5,20.3-12.7,22.7-25.9c0.3-1.8-0.1-3.7-0.2-5.4c0.5-1.6,1.3-3.2,1.4-4.8c0.8-15.3-4.5-28.7-14-40.4
			c-11.9-14.7-26.7-26-42.6-36c-17.1-10.8-35.7-18.6-54.5-25.9c-4.1-1.6-8.4-2.8-12.6-4.3c-13.1-4.5-26.3-8.6-39.5-12.9
			c-9.7-3.1-19.3-6.4-28.6-10.4c-13-5.6-25.5-12-36.6-20.8c-11.5-9.1-20.9-19.8-25.3-34.1c-3.4-11-4-22.3-3.6-33.7
			c0.4-12,2.5-23.8,6.2-35.1c6.7-20.2,17-38.7,29.5-55.9c3.4-4.6,6.7-9.4,10.3-13.8c22.7-27.8,50.4-49.5,81.7-66.9
			c23.1-12.8,46.8-24.6,71-35.2c46.8-20.5,95.1-36.7,145.1-47.3c13.7-2.9,27.5-5.4,41.3-7.4c14-2.1,28.1-3.7,42.1-5.1
			c12.5-1.2,25.1-1.7,37.7-2.6c1.8-0.1,3.6-0.9,5.5-1.4c1.1,0.3,2.7,1.2,4.2,1.2c14.9,0.1,29.8-0.1,44.7,0c8.3,0,16.5,0.3,24.8,0.7
			c8.1,0.4,16.3,0.8,24.4,1.6c7.8,0.7,15.7,1,23.5,2.1c29.6,3.9,58.9,9.4,87.3,18.7c24.8,8.2,46.5,17.9,67.1,31.4
			c11.4,7.5,22.3,15.8,32,25.4c6,6,12.3,11.8,17.6,18.4c9.1,11.4,18,23,26.2,35c12.2,18,21.8,37.5,29.5,57.9
			c3.1,8.1,5.8,16.5,8.3,24.8c5,16.7,8.3,33.8,9.6,51.3c1.2,15.7,1.5,31.3-1.6,47.4c0,0-10.6,12.3,8.1,17.7s23.1-11,23.1-11
			c5.8-20.1,6.5-41,4.9-62.3c-0.9-11.3-2.7-22.5-4.9-33.6c-4.2-21.6-10.5-42.6-20.9-62.1c-15.9-29.6-36.4-55.8-61.1-78.5
			c-11.6-10.6-24.2-20-36.4-30c-9.6-7.9-19.5-15.3-30.8-20.7c-8.8-4.2-17.5-8.7-26.2-13c-1.1-0.5-2.5-0.2-3.1-0.2
			c-1.8-1.1-3.1-2.3-4.7-2.9c-8.4-2.9-16.7-5.9-25.2-8.5c-23.7-7.3-47.8-12.6-72.2-16.6c-15.1-2.5-30.3-4.4-45.6-6
			c-34.9-3.8-69.8-4.9-104.9-3.8c-27.4,0.9-54.6,3.1-81.7,6.9c-17.1,2.4-34.3,5.2-51.1,9.1c-22.3,5.1-44.4,11-66.3,17.5
			c-30.3,8.9-59.8,20.1-87.8,34.9c-7,3.7-14.4,6.5-21.4,10.2c-23,12-45.2,25.5-66.3,40.6c-10.4,7.4-20.3,15.7-30.4,23.6
			c-15.9,12.5-30.1,26.8-42.4,42.8c-13.6,17.6-23.5,37.2-29.9,58.4c-3.3,10.8-5.9,21.8-7.7,33c-1.6,9.8-2.2,19.8-2,29.7
			c0.3,14.4,2.3,28.4,7.4,42.2c3.7,9.9,9.1,18.3,16.1,25.8c9.2,10,20.6,16.9,33.4,21.1c17.7,5.7,35.7,10.5,53.5,15.8
			c18.9,5.6,37.9,11,56.8,16.8c12.1,3.8,23.9,8.3,34.4,15.7c6.8,4.8,13,10.8,16.2,18.1c6.2,14.1,7.2,29.1,4.3,44.3
			c-0.2,1.3,0.2,2.7,0.2,3.7c-0.8,1.1-1.8,2.1-2.3,3.2c-4.2,10.8-11.5,18.4-23,20.7c-13.4,2.7-26.7,0.8-39.7-3.1
			c-2.9-0.9-4.8-3.1-4.9-6.1c-0.3-5.4-0.8-11,0-16.3c2.3-15.7,3.9-31.4,2.7-47.3c-1.1-15.2-7.9-27-22.3-33.4
			c-9.2-4-18.9-5.6-28.8-4.9c-6.4,0.5-12.8,1.7-18.9,3.6c-9.9,3.2-14.4,11.7-11.5,21.6c1.7,5.6,3.8,11.6,7.5,16.1
			c11.9,14.7,13.6,31.5,11.7,49.2c-0.4,3.9-1.2,7.8-2.6,11.5c-0.7,1.9-2.9,3.8-4.8,4.7c-2.5,1.1-5.5,1.7-8.3,1.7
			c-12.6,0-24.5,1.6-35.7,8.5c-7.5,4.6-14,9.9-19.1,16.9c-1.3,1.8-3.5,3.5-1.7,5.3c-1.2,1.3-2.5,2-3,3.2c-4.2,9.1-6.4,18.9-7.1,28.8
			c-1.2,15.8-1.3,31.5,0.6,47.3c1.1,8.9,2.7,17.5,5.6,25.8c2.2,6.3,5.6,12.1,8.3,18.3c2.6,6,7.2,10.7,11,15.8
			c8.9,12.1,20.1,22,32.2,30.9c2.8,2.1,5.6,4.1,8.4,6.1c2.8,1.9,5.7,3.5,8.3,5.6c2.3,1.8,5.6,1.7,7.3,4.4c0.1,0.2,0.4,0.2,0.6,0.3
			c6.6,3.4,13.2,7.2,19.9,10.3c13.1,6,26.4,11.8,39.7,17.5c1.1,0.5,2.6,0.1,4,0.1c0.6,0.7,1.1,1.8,1.9,2.1c5,1.9,10.1,3.8,15.3,5.3
			c24.6,6.9,49.2,14.1,74,20.3c26,6.5,52.1,12.7,78.4,17.6c27.7,5.1,55.6,8.9,83.6,12.4c18.8,2.3,37.8,3.2,56.7,4.5
			c9.3,0.6,18.7,1.2,28,1.1c25.7-0.2,51.4-0.3,77.1-1.5c18.9-0.8,37.7-2.6,56.4-5.2c25.2-3.6,50.3-8.1,75.4-12.7
			c11.9-2.2,23.8-5.2,35.4-8.6c21.1-6.2,42.1-12.7,62.9-19.7c13-4.4,25.9-9.5,38.6-14.8c24-10.1,47.3-21.3,65.7-40.7
			c12.5-13.2,23.9-27.3,33.4-42.8c15.6-25.5,20.3-53.6,18.6-83C1132.3,697.8,1128.9,683.5,1124.1,669.6z M959.5,614.5
			c1.3,0.7,3.2,1.1,3.8,2.2c1.4,2.7,2.9,5.7,3.1,8.6c0.4,5.2,0,10.4-0.2,15.6c-0.1,1.2-0.9,2.3-1.3,3.5c-0.5,0-0.9,0-1.4,0
			c-0.8-2.9-1.8-5.8-2.3-8.7c-1-5.8-1.8-11.5-2.5-17.3C958.4,617.2,959.2,615.8,959.5,614.5z M813.8,659c1.9-5.9,3.8-11.8,6-17.6
			c1.3-3.4,2.7-3.5,5.1-0.8c3.1,3.4,4.1,7.1,2.3,11.5l-4.3,5.7c-2,1.3-3.9,2.8-5.9,3.9c-0.7,0.4-2-0.1-2.8-0.6
			C813.8,660.8,813.6,659.6,813.8,659z M782.5,245.7c0,0-11.5-24-23.7-22.4c-12.2,1.6-2.3-17.6,7-13
			C775.2,214.9,787.9,241.6,782.5,245.7z M733.4,420.9c2.5-1.8,4.5,1.2,4.3,4.1c-0.2,2.8,1.5,3.6,6.9,4.7c1,0.2,2.5,0.3,4.4,0.3
			c0,0,0,0,0,0c1.3,0.1,2.3,0.1,3.2,0c0.8,0,1.6,0,2.4-0.1c0.4,0.1,0.6,0.4,0.6,1c0,1.3-1.2,1.9-1.9,2.2c-12.3,3.3-20,5-24.3-0.7
			C724.2,426.2,733.4,420.9,733.4,420.9z M720.4,428.4c0.5,7.5,4.2,16.5,19.5,13.5c25.5-4.9,74.3-9.4,74.7,13.2c0,0.3,0,0.7,0,1
			c0,0.1,0,0.2-0.1,0.4c-0.3,0.9-0.6,1.8-1,2.7c-0.6,1.1-1.3,2.1-2,3.1c-1.6,1.8-3.3,3.3-5.1,4.7c-4.1,2.8-8.5,4.9-13,6.6
			c-4.3,1.6-8.7,2.9-13.1,4c-33.9,2.7-64.1-9.5-67.7-22.7C710.2,444.8,717,433.3,720.4,428.4z M282.4,328.4
			c-1.9-2.4-3.7-4.7-5.5-6.8c-1.7-2-3.7-3.7-5.3-5.9c-2.6-3.6-5.1-7.4-7.6-11.2c-0.9-1.4-0.2-2.4,0.9-2.6c0.9-0.2,2,0,2.9,0.3
			C278,306.3,282.8,319.7,282.4,328.4z M472.2,534.1c-0.9,0.1-2-0.2-2.7-0.8c-5.7-4.5-11.5-8.9-16.9-13.7c-1.5-1.3-2.8-3.6-0.7-5.7
			c2-2,3.8-0.4,5.3,0.9c4.7,4.2,9.3,8.5,13.9,12.9c1.2,1.2,2,2.9,3.3,4.9C473.5,533.3,472.9,534.1,472.2,534.1z M649.2,423.6
			c5,1.5,9.8,3.5,14.5,6c13.7,9,16.9,18.8,17.6,24.1c-2.8,0-5.6-0.4-8.3-1.1c-3.4-1.1-6.7-2.7-9.9-4.6c-3.4-2.4-6.5-5.2-9.3-8.4
			c-3.5-4.3-6.5-9.2-9.1-14.4c-0.4-1-0.9-1.9-1.3-2.9C645.3,422.6,647.3,423.1,649.2,423.6z M628.8,394.9c0.7-2.9,3-4.7,5.1-4.1
			c2.1,0.7,3.1,3.6,2.4,6.5c-0.7,2.9-3,4.7-5.1,4.1C629.1,400.7,628.1,397.8,628.8,394.9z M511.6,389.2c0.4-3,2.4-5.2,4.5-5
			c2.1,0.3,3.6,2.9,3.2,5.9c-0.4,3-2.4,5.2-4.5,5C512.7,394.8,511.3,392.2,511.6,389.2z M484.1,254.1c0,0-6.8-21.6-16.8-22
			c-9.9-0.3-0.2-15.1,6.9-9.9C481.3,227.3,488.9,251.4,484.1,254.1z M515.2,470.1c-18.5-2.9-32.6-25.5-28.9-41.5
			c0.4-1.3,0.9-2.5,1.5-3.7c1-1.8,2-3.5,3.2-5.1c2.9-3,7-5.3,12.6-6.4c6,21.7,22.4,46.9,45,56.9
			C541.9,471.7,531.1,472.6,515.2,470.1z M544.2,430.9c-3.5-4.3-6.5-9.2-9.1-14.4c-0.1-0.2-0.2-0.3-0.2-0.5
			c22.4,6.6,32.2,21,36.1,29c-2.6-0.1-5.1-0.5-7.6-1.1c-3.4-1.1-6.7-2.7-9.9-4.6C550.1,436.9,547,434.1,544.2,430.9z M574.2,524.3
			c0.9,6,2,12,3,17.9c2,12.2,4,24.4,4.6,36.7c1,22.4,1.9,44.9,2.9,67.4c0.5,10.9,0.8,21.7,1.6,32.6c1.1,14.1,2.5,28.1,4,42.2
			c1.2,11.7,2.9,23.4,4,35.1c0.4,3.7-0.7,7.5-0.7,11.3c0,2,0.6,3.9,0.9,6c-0.3,1.2-0.8,2.5-1,4c-0.5,3.9-0.5,7.9-1.5,11.7
			c-1.1,4-4.6,4.7-7.5,1.7c-1.4-1.5-2.7-3.5-3.2-5.5c-2.4-8.1-3.5-16.5-4.3-24.9c-1.8-17.3-4-34.5-5.9-51.8
			c-2.4-22.3-4.7-44.6-7.1-66.9c-1.3-12.7-2.7-25.4-4-38.1c-1.3-12.6-2.6-25.2-3.8-37.8c-0.9-9.7-1.8-19.3-2.6-29
			c-0.8-9.2-1.6-18.4-2.5-27.6c0,0-0.1-2.2,3.2-4.2c0.3-0.2,0.6-0.3,0.9-0.5c0.1,0,0.1-0.1,0.2-0.1c1.2-0.6,3-1.4,4.6-2.4l0,0
			c0.2-0.1,13.3-7.3,17.4-13.3c2.8,6.2,8.3,12.9,18.3,19.2c-3.5-1-7-1.5-10.8-1.3c-2.3,0.2-5.2,1-6.8,2.6
			C574.3,513.5,573.5,518.8,574.2,524.3z M600.2,448c0.6-11.9,7.3-20.6,17.1-25.1c3,47.4,35,57.4,51,59.5c0,0-0.1,0.1-0.1,0.1
			C628.7,491.6,598.9,472.9,600.2,448z M634.4,624.7c-5.5,3.8-12.1,6.1-18.3,9c-0.9,0.4-2,0.5-3.9,0.8c1.3-11.3,2.1-21.8,3.7-32.2
			c2.4-15.6,5.1-31.1,8-46.6c0.5-2.8,1.7-5.6,3.2-7.9c3-4.5,8.8-4.3,13.2-0.6c11.6,9.6,14.6,22.6,15.5,36.5
			C657,601.7,648.5,614.9,634.4,624.7z M912.3,673.2c-4.1,8.3-9.3,15.9-16.6,21.7c-2,1.6-5,3.3-7.2,2.8c-3-0.7-2.3-4.4-2.2-6.9
			c0.4-5.6,1.2-11.2,1.7-16.8c1.2-12.6,2.2-25.3,3.5-37.9c0.5-5.5,1.4-10.9,1.9-16.3c0.1-1.4-0.6-2.8-1-4.7c-0.2,0,0.2,0,0.6,0
			c0.3,0,0.7,0.1,1,0.1c0.1-0.3,0.3-0.5,0.3-0.7c1.7-8,4.4-9.4,11.8-6.1c9.4,4.2,14.2,11.8,15.5,21.7
			C923.7,645.6,918.9,659.6,912.3,673.2z M336.3,658.2c13.5,0,27,0,40,4.5c12.2,4.3,20.3,12.6,25.3,24.3c5.4,12.6,7.6,25.7,7.6,39.3
			c0,12.3-1.6,24.3-6.8,35.5c-1.7,3.6-3.8,7.2-6.3,10.2c-3.9,4.6-8.3,5.1-13.5,2.1c-7.2-4.1-12.4-10.4-16.2-17.4
			c-6.8-12.3-13.3-24.8-19.1-37.6c-7.6-16.9-12.4-37.3-14.1-56.8C332.8,659.9,333.8,658.2,336.3,658.2z M305.6,540
			c2.9,1.6,6.5,3.4,7.9,6.1c2.4,4.5,3.8,9.7,5,14.8c0.9,4.2,0.9,8.6,1.2,13c-0.5,0.1-1,0.3-1.4,0.4c-5.7-10.9-11.3-21.7-17.6-33.7
			C302.5,540.4,304.5,539.4,305.6,540z"/>
		<path class="st0" d="M947.4,386.1c-1.2-0.1-2.4,0-3.5,0.3c-1.1,0.3-2.1,0.8-2.9,1.4c-0.8,0.6-1.5,1.4-2,2.2
			c-0.5,0.8-0.9,1.7-1.1,2.5c-0.3,1.5,0.1,2.9,1.1,4.3c1,1.3,2.8,2.3,5.6,2.8c2.6,0.5,4.7,0.2,6.2-0.9c1.5-1.1,2.4-2.5,2.7-4.1
			c0.3-1.7,0-3.4-1-5.1C951.4,387.8,949.7,386.7,947.4,386.1z"/>
		<path class="st0" d="M989.4,378.9c3.9-5.1,6.6-9.7,8.2-13.8c0.8-2,1.3-3.9,1.6-5.7c0-0.1,0-0.1,0-0.2c0.1-0.4,0.2-1,0.2-1.8
			c0-0.2,0-0.4,0-0.6c0-1.2,0-2.4-0.2-3.5c-0.6-5.4-3.2-12.5-11.5-13.6c-12.5-1.6-19.7,10.2-9.7,17.2c9.8,6.9,10.9-4.2,10.9-4.4
			c0.1,0.3,0.2,0.6,0.3,1c0.1,0.9,0.1,2,0.1,3.4c-0.1,1.4-0.5,3.1-1.3,5c-0.7,1.7-1.6,3.6-2.9,5.7c-1.3,2.1-3,4.5-5.2,7.2
			c-2.2,2.7-4.8,5.6-8.1,8.8c-3.2,3.2-7,6.7-11.5,10.4c-0.4,0.4-0.7,0.8-0.9,1.1c-0.4,1-0.3,2,0.3,3c0.6,1.1,1.6,1.8,3,2.4
			c6.2,2.4,11,4,14.2,4.8c0.4,0.1,0.7,0.2,1.1,0.2l0,0c0,0,5.6,2,8.2-2.9c2.6-4.9-5-7.1-5-7.1l-5.7-2.2l0,0
			C981.5,388.2,986,383.3,989.4,378.9z"/>
		<path class="st0" d="M991.8,413.3c0.9,0.4,1.9,0.6,3,0.6c1.1,0,2-0.5,2.7-1.4l36.4-43.9c0.4-0.9,0.4-1.9-0.2-3
			c-0.6-1.1-1.6-1.9-2.9-2.5l-10.7-4.9c-0.6-0.3-1.3-0.7-2.4-1.1c-0.1,0-0.2-0.1-0.3-0.1c-0.3-0.1-0.5-0.2-0.8-0.2
			c-5.6-1.6-7,1.5-7,1.5c-4.8,7.3,0.9,9.6,0.9,9.6l7.9,3.8l-29.2,35.4l-0.5,0.7c-0.5,1-0.4,2.1,0.3,3.1
			C989.7,412,990.6,412.8,991.8,413.3z"/>
		<path class="st0" d="M921.8,364.5c4.7-1,6.2-6.8,5.1-10.1c-0.9-2.8-7.9-1.6-10-1.1c0,0,0,0,0,0l-2.4-11.7c-0.3-1.3-1-2.1-2.1-2.5
			c-1.1-0.4-2.3-0.5-3.6-0.2c-1.2,0.2-2.2,0.7-3.2,1.5c-0.9,0.8-1.3,1.8-1,3.1l2.4,11.7l-8.4,1.6l-2.4-11.7c-0.3-1.3-1-2.1-2.1-2.5
			c-1.1-0.4-2.3-0.5-3.6-0.2c-1.2,0.2-2.2,0.7-3.2,1.5c-0.9,0.8-1.3,1.8-1,3.1l3.2,15.4c0.1,0.3,0.1,0.5,0.2,0.7
			c0,0,0.9,7.5,7.2,7.7c6.3,0.3,11-2.7,13.3,4.9c1.7,5.5,3.9,14.4,5.1,18.9l0.4,1.9c0.1,0.3,0.2,0.6,0.3,0.9c0,0,0,0,0,0l0,0
			c0.4,0.7,1,1.3,1.8,1.5c1.2,0.4,2.4,0.5,3.6,0.2c1.3-0.2,2.4-0.8,3.2-1.6c0.9-0.8,1.2-1.8,0.9-3.1l-4.9-23.4l0,0l-0.5-2.2l0,0l0,0
			l0-0.2C919.9,367.2,920.1,365,921.8,364.5z"/>
		
			<ellipse transform="matrix(0.9732 -0.2298 0.2298 0.9732 -97.8214 254.0277)" class="st0" cx="1042" cy="547.1" rx="15.5" ry="15.5"/>
	</g>
</g>
</svg>